/* XPM */
static char *_5534_331358e0c2c176154b5234d1b9817ba58a31ecdbae13895d1a0fde7be6fdb145[] = {
/* columns rows colors chars-per-pixel */
"50 50 88 1 ",
"  c black",
". c #000100",
"X c #010101",
"o c #010005",
"O c #000105",
"+ c #010204",
"@ c #020106",
"# c #010206",
"$ c #000306",
"% c #010207",
"& c #040710",
"* c #06141F",
"= c #031320",
"- c #051320",
"; c #071321",
": c #061323",
"> c #041421",
", c #061421",
"< c #071522",
"1 c #071424",
"2 c #361E2B",
"3 c #371F2C",
"4 c #391D2B",
"5 c #391F2A",
"6 c #381E2B",
"7 c #381D2C",
"8 c #391D2C",
"9 c #391F2C",
"0 c #391E2D",
"q c #3A1E2C",
"w c #3A1E2D",
"e c #152B38",
"r c #172A38",
"t c #172A39",
"y c #162C39",
"u c #182B39",
"i c #192B39",
"p c #182B3A",
"a c #192C3A",
"s c #3A202D",
"d c #3E2230",
"f c #3E2231",
"g c #3F2331",
"h c #3E2332",
"j c #3F2332",
"k c #3E2431",
"l c #3F2234",
"z c #412232",
"x c #402432",
"c c #402433",
"v c #412234",
"b c #402335",
"n c #472D36",
"m c #482D36",
"M c #482E37",
"N c #492E37",
"B c #482C38",
"V c #492D39",
"C c #4B2D39",
"Z c #482E39",
"A c #482C3A",
"S c #492D3B",
"D c #4B2C3B",
"F c #492F3A",
"G c #4A2E3A",
"H c #4C2E3A",
"J c #4A2E3C",
"K c #542B87",
"L c #542B89",
"P c #562A89",
"I c #542B8B",
"U c #9E4FF6",
"Y c #9E4FF8",
"T c #9F50F7",
"R c #9F50F9",
"E c #A14FF9",
"W c #A150F7",
"Q c #A051F8",
"! c #DD8BF7",
"~ c #DD8BF9",
"^ c #DE8CF8",
"/ c #F7CEF6",
"( c #F8CFF7",
") c #F8CFF9",
"_ c #F6D0F7",
"` c #F9D0F8",
"' c #FAD0F8",
"] c #F9D0FA",
/* pixels */
"jjjjjjjjjjjjjjjjjjjjjjjjgjjcjcljgjjjjjjjjjjjjjjjjj",
"jjjjjjjjjjjjjjfjjjjjjjjjjjjjjjjjjjjjjjjjjjjjjjjjjj",
"jjjjjjjjjjcjjjjjjjjccjjjjjjjjjjjjjjfjjjjjjjjjjjjjj",
"jjjjjjjjjjjjjjjjjjjjjjjjcjjjjjjjjjjjjjjjjjjjjjjjjj",
"jjjjjjjjjfjjjjjjjjjjjjjjjjjjjjjjcjjjjjjdjjjjjjjjjj",
"jjjjjjjjjjjjjjjcjjjjjjjjcjjjjljjjjjjVVjjjjjjjjjjjj",
"jjjjjjjjjjjjjdSVjjjjjjjjljjjjjJVVVcjVVVgjjjjjjjjjj",
"jjjjjjjjfjjjgSVNjjVVVVjjjjjjjjVVVNjj4qqfjjjjjjjjjj",
"jjcjjjjjzjjjj999zjCNVVjjfjVVVjwVSqjVVVjjVVjjjhjjjj",
"cjjjjjcjjjVVjjVVVj9VV9hVNVVVBjh99jjVVVVjVZjjjjjjjj",
"jjjjjjjjjfVBjBCGV9j99jjVVZ999jVVVjj9VVNj99jVBVjjjj",
"jjjjjgVVVs99jVVV2jfVVVg996jjjVVVV#jj9s@cbjHVV7jjjj",
"jjcjjjqVVV9jj999jjVVSVZ9fjVVVVVGB>:,VV@-CV695fjjjj",
"jjjfjjj099VVVNVNVfVVNVV9CVAVVVVVqqe,,VV&,VVVjVVjjj",
"jjjjjVVhVVVVVVGVVj99VVVGSVNVVVVVCVCu,VB&,VZVj95jjj",
"jgflj99jNVVVVVVCCVZVVVVVNVVVNVVVVVVu,V,&*VGVjjljjj",
"jjjjjcjfVV9VVVSNVVNVVVVVV:,,,,uu,VV,,y,,VVVVBjVVjj",
"jjjjBVjVVS9VVBVGVVVVnV,,,u,auu,ut,+,,uu,VVV69j99jj",
"jjjj99c309VZVVGVVVVGV,,u,u,,,,u<uu#,,TuTVVSzVGVjVV",
"jSCGjVGVjVVVVGVCGZVN,uu,,,,ipu*a,,@=,ya,VVVVBVVzVV",
"j9VVjCVVVVVVVs99lVV,y,-VVVViru,r,#-#,uuVGVjVVD9j99",
"jj99j5FVVjVVVjjjV,u,,VGVVVVV,u,<#,%,#VVBVVVq90jcjj",
"jjjjjj999jSVVVBVTu,,,VVVSVVuu,uu+1,,,VBVVCVVVjjjjj",
"jjjjhjfVVVGVVBR((uu,BVVVVVN,*u,$,+:*,.NV#:VV6jjjjj",
"jgjjzhj9VNVVVT!_T'TVNVVVVVZuy,#VVG,,#X % ,VjjjjjjV",
"jVVljjjj95VVT!)W``VVVVVSVVTTQu,LVVV# ##. VCgjjjjVV",
"cVVZjjvjjZVT^)T(CBVVVVVCVV###TK#:VVVV#% HVVVljjj99",
"j999jljjVGT~(T`VVSVVNVBVy#,,:@###*,+VZVVVVCVGVSGSV",
"jjZVVVVVVT!/T(VVVVVZVNVyu;*,#:o,:,<##NGVVVVCV5VVVV",
"jjCVG60VR~_R(VCVVVVVVmVu#O,,#,#,,,, ###HZVSVVjSVZ6",
"cjVN9ljU!`R(VVVBBVVNVVV$#,;##*VG<<    #,VZV9jl99qj",
"jj99jjj!(((VVVSSBSVVVV##,uuNVVVVVC    LYSVVVjjjjjj",
"jzjlVVjE)]BGVSVVVVNVV,,#uu,99jVVVNV#$  LVSVVVjVVjj",
"jjgzVSj`EVVVVVCVVVVV+TIO,,jcfVGVVVV##.#VVVV99j69jj",
"jjjj60j69VVVVCVV9SVV#P$#jjVVVVVVj96G  VVVVVjNZVjjj",
"jjjjjVVVlVVVV509jVZ###VVVVSCVGGSVVj9#VDZVVNVGVCjjj",
"jjjjjCVVVCVVVVVMVV,,#qVVVV9jj0CVVVVG VVVCVjVVV9cjj",
"jjjjjjVVVjVSVVVCV,ujjjVVVVGjgj09VVN9#OVVjjj999cjjj",
"fjjfjj999j9sVVV99r#jjh96VZVjjjjfGVGxVVV5lVVGCjgjjj",
"vjjjjjjBVVNj9VVVj,,gfcjj999jjjjj9q9jVVVjjjVV9jjjjj",
"jjjjfjj8VVqhhGVGjjjjjjjjjjjjjjjjjjfjww8jjj8wjjjjjj",
"jjjjjjcj39kjj993jjjjjjjjjjjjjjjjjjjjjjjjjjjjjjjjjj",
"jjjjjjjjjfjjjjjjjjjjjjjjjjjjjjjjjjjfjjjjjjjjjjjjjj",
"jjjjjjjfjjjccjjfjjjjjjjjjjjjjjjjjjjjjjjcjjjjjjjcjj",
"jfjjjjjjjjjjjjjjjjjjjjjjjjjjjjjjjjjjjjjjjjjcjjjjjj",
"jjjjjjjjjjjjjjjjjjjjjjjjjjjjjjjjjcjjjjjjjjjjjjjjjj",
"jjjfjjjjjjjcfjjjjjjjjjjjjjjjjjjjjjfjjjjjjjjjjjjjjj",
"jjjjjjjjljjjjjjfjjjjjjjjjjjjjjjjjjjjjjjjjjjjjjjjjj",
"jjjjjjjjjjjjjjjjjjjjjjjjjjjjjjjjjjjjjjjjjjjjjjjjjj",
"jjjjjjjjjjjjjjjjjjjjjjjjjjjjjjjjjjjjjjjjjjjjjjjjjj"
};
