/* XPM */
static char *_6961_abdb00c0ca4fc60efff7279847df6acd2f86326a9cb3555eba535329d7e0b0a5[] = {
/* columns rows colors chars-per-pixel */
"50 50 89 1 ",
"  c black",
". c #010000",
"X c #000100",
"o c #010100",
"O c #000002",
"+ c #000105",
"@ c #010204",
"# c #000106",
"$ c #020106",
"% c #010206",
"& c #000306",
"* c #010207",
"= c #020307",
"- c #03060F",
"; c #040710",
": c #040612",
"> c #07131F",
", c #06141F",
"< c #051320",
"1 c #071321",
"2 c #051222",
"3 c #061323",
"4 c #041421",
"5 c #061421",
"6 c #041423",
"7 c #071522",
"8 c #371F2C",
"9 c #391D2B",
"0 c #391F2A",
"q c #381E2B",
"w c #391D2C",
"e c #391F2C",
"r c #391E2D",
"t c #3A1E2C",
"y c #3A1E2D",
"u c #182C37",
"i c #172A38",
"p c #162C39",
"a c #182B39",
"s c #192B39",
"d c #182B3A",
"f c #192C3A",
"g c #3A202D",
"h c #3D2231",
"j c #3E2230",
"k c #3E2231",
"l c #3F2331",
"z c #3E2332",
"x c #3F2332",
"c c #3E2431",
"v c #3F2234",
"b c #402131",
"n c #412231",
"m c #412232",
"M c #402432",
"N c #402433",
"B c #402335",
"V c #482E37",
"C c #492E37",
"Z c #472D38",
"A c #482C38",
"S c #492D39",
"D c #4B2D39",
"F c #482E39",
"G c #492D3B",
"H c #492F3A",
"J c #4A2E3A",
"K c #4C2E3A",
"L c #4A2E3C",
"P c #542B89",
"I c #9E4FF6",
"U c #9F50F7",
"Y c #9E51F7",
"T c #9F50F9",
"R c #A150F7",
"E c #A051FA",
"W c #DC8AF6",
"Q c #DD8AF6",
"! c #DD8BF7",
"~ c #DE8BF7",
"^ c #DD8BF9",
"/ c #DE8AF9",
"( c #DE8CF8",
") c #DF8CF8",
"_ c #F7CEF6",
"` c #F8CFF7",
"' c #F9CFF7",
"] c #F8CFF9",
"[ c #F9D0F8",
/* pixels */
"xxxxxxxxxxxxxxxxxxxxxxxxlxxNxNvxlxxxxxxxxxxxxxxxxx",
"xxxxxxxxxxxxxxkxxxxxxxxxxxxxxxxxxxxxxxxxxxxxxxxxxx",
"xxxxxxxxxxNxxxxxxxxNNxxxxxxxxxxxxxxkxxxxxxxxxxxxxx",
"xxxxxxxxxxxxxxxxxxxxxxxxNxxxxxxxxxxxxxxxxxxxxxxxxx",
"xxxxxxxxxkxxxxxxxxxxxxxxxxxxxxxxNxxxxxxjxxxxxxxxxx",
"xxxxxxxxxxxxxxxNxxxxxxxxNxxxxvxxxxxxSSxxxxxxxxxxxx",
"xxxxxxxxxxxxxjGSxxxxxxxxvxxxxxLSSSNxSSSlxxxxxxxxxx",
"xxxxxxxxkxxxlGSCxxSSSSxxxxxxxxSSSCxx9ttkxxxxxxxxxx",
"xxNxxxxxmxxxxeeexxSSSSxmkxSSSxeSSexSSSxvSSxxBxNlxx",
"NxxxxxNxxxSSxxSSSxeSSelSSSSSDxveexxKSSJxSSxvxxxxxx",
"xxxxxxxxxkSAxADJSekeexxSGCe8qnSDD%meCS%xeexSSSzxxx",
"xxxxxlSSSgeexSSSexxASSxeeexzzSSSS3530q%5MvKSSexxxx",
"xxNxxxtSSSexxeeeNxSSSSSexxSSSSSSDSa55SS:5Seeekvxxx",
"xxxkxxxreeSSSCSCSxSSSASeSSDSSSSSreza5SS-5SSSvDCvxx",
"xxxxxSSzSSSSSSJSCx0tSAS`!!SSSSSSSSSa5J5;<SSSzeexxx",
"xlkvxeexCSSSSSSDCSSSSS[!!C/<57aa5SS55a55SSSSxxxxxx",
"xxxxxNxkSSeSSSGCSSSSS`!SS55aaa5aa5%53af5SFDCSkSSxx",
"xxxxASxSSGeSSASJSSZSS!355a5555f5af%>5YaUSSSeexeexx",
"xxxxeeN8reSFSSJSSSSSS25a,a5apa5a55%<5aa3SGSkSSSxSS",
"xGDJxSJSxSSSSJSDSVSS1da5(55aaa5a5$5%5aaSSSSJGSSxSS",
"xeSSxDSSSSSSSgeeM![[!5<(~SSA5a55@5%5*SSSSSkSSFexee",
"xxeex0HSSxSSSxxxS5a5!^```SSi55aa%5555DFSSSSe0txxxx",
"xxxxxxeeexGSSSASUa555SSSSSS5aa5@5%555 FS%4SDSxzNxx",
"xxxxzxkSSSJSSAT``aa!!CSSSSSs55@CSS55%X % 5SSrxkxxx",
"xxmxxmxeSLSST!!`U`T`SWSSSSUURa5PFSS% %$  SAxmxxxxS",
"lSAxmxxxeeSU)[`U``C`SSSSVS+%%UP%4SSSS+% SSSxvxkxSS",
"xSSSxkklxSU!`U!`S!^`SSSSa%7,3%%%%55*SSSSSAJScxvxee",
"x0qrkNvxSU![I``!!Q`SSSSpu555%5%5554%=SSSSSSFSSSSGS",
"xxSSSSSSU!`R`SSSSSSSGSGa%%55%5=5555 %@*CSSSSDeFSSS",
"xxSSSeeR!'U_SDSSCASFSSS$%57%%5DS53    @5SSCCSxKSFq",
"xxSSqxx!``]SSSCFCGSSSG%%,aaSSDSCSS O. PEASSexveetx",
"xNetxxxU``SSSSSSSSSCS47%pa3SSDSSSSJ*%  PDDASxxxxxx",
"xxxvSFk'ESSSSSSSKASDSRP%52eeexSSSSD%% &ASGSSSxSSxx",
"kxxxSSxCSJSSSSSDSSSS%P#%egxzvSSSCSSS  SSSSSeexqexx",
"xxxxeexeeSSSSSSDeSSS%@%SvxSSSDSJxe8So CSSSSxCFSxxx",
"vxxxxSDHzSSSSeeexDJ%=%ASSSSSSSSSSDme=JSSSSCSJSDxxx",
"xxNxxCSSSSGSSDGGGA<4%eSSJSebhrSFSSSS SSSDSxSSSeNxx",
"lxmlzxSJSxSSSSSSA6axxxCSSSJxxxeeSSCe%%SSxxxeeeNxxx",
"vxkxxxteeNeeSSSera+xxxeeSSDxxxxxSSSxSSSevSSJDxlxxx",
"xxkxxxxJSSSmeDSCx55mvNzxeeexxxlzeeevSSSxxxSSexxxxx",
"xxxxkxxwSStzzJSJxxxxxxxxxxxxxxxxxxkxyywxxxwyxxxxxx",
"xxxxxxNx8ecxxee8xxxxxxxxxxxxxxxxxxxxxxxxxxxxxxxxxx",
"xxxxxxxxxkxxxxxxxxxxxxxxxxxxxxxxxxxkxxxxxxxxxxxxxx",
"xxxxxxxkxxxNNxxkxxxxxxxxxxxxxxxxxxxxxxxNxxxxxxxNxx",
"xkxxxxxxxxxxxxxxxxxxxxxxxxxxxxxxxxxxxxxxxxxNxxxxxx",
"xxxxxxxxxxxxxxxxxxxxxxxxxxxxxxxxxNxxxxxxxxxxxxxxxx",
"xxxkxxxxxxxNkxxxxxxxxxxxxxxxxxxxxxkxxxxxxxxxxxxxxx",
"xxxxxxxxvxxxxxxkxxxxxxxxxxxxxxxxxxxxxxxxxxxxxxxxxx",
"xxxxxxxxxxxxxxxxxxxxxxxxxxxxxxxxxxxxxxxxxxxxxxxxxx",
"xxxxxxxxxxxxxxxxxxxxxxxxxxxxxxxxxxxxxxxxxxxxxxxxxx"
};
