/* XPM */
static char *_2161_280e0d97e7cfd860be94afcb6566d7ed08989ecb18a91e2f023d364876a5db0e[] = {
/* columns rows colors chars-per-pixel */
"50 50 93 2 ",
"   c black",
".  c #010000",
"X  c #000100",
"o  c #010100",
"O  c #000002",
"+  c #000105",
"@  c #010204",
"#  c #000106",
"$  c #020106",
"%  c #010206",
"&  c #000306",
"*  c #010207",
"=  c #020307",
"-  c #03060F",
";  c #040710",
":  c #040612",
">  c #07131F",
",  c #04151F",
"<  c #06141F",
"1  c #051320",
"2  c #071321",
"3  c #051222",
"4  c #061323",
"5  c #041421",
"6  c #061421",
"7  c #041423",
"8  c #071522",
"9  c #361E2B",
"0  c #371F2C",
"q  c #391D2B",
"w  c #391F2A",
"e  c #381E2B",
"r  c #391D2C",
"t  c #391F2C",
"y  c #391E2D",
"u  c #3A1E2C",
"i  c #3A1E2D",
"p  c #182C37",
"a  c #172A38",
"s  c #172A39",
"d  c #162C39",
"f  c #182B39",
"g  c #192B39",
"h  c #192A3A",
"j  c #182B3A",
"k  c #192C3A",
"l  c #192C3B",
"z  c #3A202D",
"x  c #3D2231",
"c  c #3E2230",
"v  c #3E2231",
"b  c #3F2331",
"n  c #3E2332",
"m  c #3F2332",
"M  c #3E2431",
"N  c #3F2234",
"B  c #402131",
"V  c #412232",
"C  c #402432",
"Z  c #402433",
"A  c #402335",
"S  c #4B2D37",
"D  c #482E37",
"F  c #492E37",
"G  c #472D38",
"H  c #482C38",
"J  c #492D39",
"K  c #4B2D39",
"L  c #482E39",
"P  c #4A2F38",
"I  c #482C3A",
"U  c #492D3B",
"Y  c #492F3A",
"T  c #482E3B",
"R  c #4A2E3A",
"E  c #4C2E3A",
"W  c #4A2E3C",
"Q  c #542B89",
"!  c #9F50F7",
"~  c #9E51F7",
"^  c #9F50F9",
"/  c #A150F7",
"(  c #A051FA",
")  c #DD8BF7",
"_  c #DE8BF7",
"`  c #DD8BF9",
"'  c #DE8CF8",
"]  c #F8CFF7",
"[  c #F9CFF7",
"{  c #F8CFF9",
"}  c #F8D0F5",
"|  c #F9D1F6",
" . c #F9D0F8",
/* pixels */
"m m m m m m m m m m m m m m m m m m m m m m m m b m m Z m Z N m b m m m m m m m m m m m m m m m m m ",
"m m m m m m m m m m m m m m v m m m m m m m m m m m m m m m m m m m m m m m m m m m m m m m m m m m ",
"m m m m m m m m m m Z m m m m m m m m Z Z m m m m m m m m m m m m m m v m m m m m m m m m m m m m m ",
"m m m m m m m m m m m m m m m m m m m m m m m m Z m m m m m m m m m m m m m m m m m m m m m m m m m ",
"m m m m m m m m m v m m m m m m m m m m m m m m m m m m m m m m Z m m m m m m c m m m m m m m m m m ",
"m m m m m m m m m m m m m m m Z m m m m m m m m Z m m m m N m m m m m m J J m m m m m m m m m m m m ",
"m m m m m m m m m m m m m c U J m m m m m m m m N m m m m m W J J J Z m J J J b m m m m m m m m m m ",
"m m m m m m m m v m m m b U J F m m J J J J m m m m m m m m J J J F m m q u u v m m m m m m m m m m ",
"m m Z m m m m m V m m m m t t t V m K F J J m m V m J H S m t R J t m J J J m N J J m m A m Z b m m ",
"Z m m m m m Z m m m J J m m J J J m t J J t n J J J J J J m m t t m m E J J R m J J m N m m m m m m ",
"m m m m m m m m m v J H m H K R J t m t t m m J J J e t t m R J K % V t F J % m t t m J J J n m m m ",
"m m m m m b J J J z t t m J J J 9 m v J J J b t y t V m n J J H J 4 6 4 w e % 6 C N E J J t m m m m ",
"m m Z m m m u J J J t m m t t t m m J J U J L t m N D J J U J F K J f 6 6 J J : 6 J t t t v N m m m ",
"m m m v m m m y t t J J J F J F J v J J F J J t F J R J J J J U y t n f 6 J J - 6 J J J N K F N m m ",
"m m m m m J J n J J J J J J R J J m t t J J J R J J J J Y J J H J J J f 6 R 6 ; 1 J J J n t t m m m ",
"m b v N m t t m F J J J J J J K K J L J J J J J J J J 1 5 6 f f 6 J J 6 6 f 6 6 J J J J m m m m m m ",
"m m m m m Z m v J J t P J J J J H J J J J J F J J 6 6 f f f 6 f f 6 % 6 4 f k 6 J L K F J v J J m m ",
"m m m m H J m J H J t F J J J F J J J ] { ) ) 6 6 k 6 6 2 6 f 6 f k % > 6 ~ f ! J J J t t m t t m m ",
"m m m m t t Z 0 e u J J J J F J J J J ] ) 2 6 d 6 f 6 f f a 6 s 6 6 % 1 6 f f 4 J U J v J J J m J J ",
"m U K R m J R J m K J J J J J J H J H { ' f f 6 6 6 < f f l 6 f 6 $ 6 % 6 f f J J J J R U J J m J J ",
"m t J J m K J J J J J J J t t t m J J 6 ` 6 , J J J K J 6 f 6 6 @ 6 % 6 * J J J J J v J J L t m t t ",
"m m t t m w Y J U m J J J C m n J 5 f 6 5 J J J J K J j 5 6 f a % 6 6 6 6 K L J J J J t w u m m m m ",
"m m m m m m t t e m J J J J H ) ) f 6 6 5 J J I J J J 6 k f 6 + 6 % 6 6 6   L J % 5 J K J m n Z m m ",
"m m m m n m v J J J J R J ! ! ] ] f g ) ' J J L J J J h 6 6 % J J J 6 6 % X   %   6 J J y m v m m m ",
"m m V m m V m t K T J L ! _ ) ) ! ] ! J J U J J J J ! ! / f 6 Q L J J %   % $     J H m V m m m m J ",
"b J H m V m m m t e J ! ) ] ] ! ) ] ) J J J J J D J + % % ! Q % 5 J J J J + %   J J J m N m v m J J ",
"m J J J m v v b m J ! ' ] ^ ) ] J ) ] H J J J J f % 8 < 4 % % % % 6 6 * J J J J J H R J M m N m t t ",
"m w e y v Z N m J ! ) } ! ] ] J J ] J H J J J f p 6 6 6 % 6 % 6 6 6 5 % = J J J J J J L J J J J U J ",
"m m J J J J J J ^ ) ) ! ] J R J ] J J L L J J f % % 6 6 % 6 = 6 6 6 6   % @ * F J J J J K t L J J J ",
"m m J J J t t / ) ] ! ) ) ) ) J J J J J J S J % % 6 8 % % 6 K J 6 4         @ 6 J J F F J m E J L e ",
"m m J J e m m ) ] ]  .J G _ ] |  .) J J J J % % < f f J J K J F J J   O .   Q ( H J J t m N t t u m ",
"m Z t u m m m ! ] ] J J J J J K ) J J J J 8 > % d f 4 J J K J J J J R * %     Q K K H J m m m m m m ",
"m m m N J L v [ ( J J J J J J J E H J K J / Q % 6 3 t t t m J J J J K % %   & H J U J J J m J J m m ",
"v m m m J J m F J R J J J J J K J J J J % Q # % t z m n N J J J F J J J     J J J J J t t m e t m m ",
"m m m m t t m t t J J J J J J K t J J J % @ % J N m J J J K J R m t 0 J o   F J J J J m F L J m m m ",
"N m m m m J K Y n J J J J t t t m K R % = % H J J J J J J J J J J K V t = R J J J J F J R J K m m m ",
"m m Z m m F J J J J U J J K U U U H 1 5 % t J J R J t B x y J L J J J J   J J J K J m J J J t Z m m ",
"b m V b n m J R J m J J J J J J H 7 f m m m F J J J R m m m t t J J F t % % J J m m m t t t Z m m m ",
"N m v m m m u t t Z t t J J J t y f + m m m t t J J K m m m m m J J J m J J J t N J J R K m b m m m ",
"m m v m m m m R J J J V t K J F m 6 6 V N Z n m t t t m m m b n t t t N J J J m m m J J t m m m m m ",
"m m m m v m m r J J u n n R J R m m m m m m m m m m m m m m m m m m v m i i r m m m r i m m m m m m ",
"m m m m m m Z m 0 t M m m t t 0 m m m m m m m m m m m m m m m m m m m m m m m m m m m m m m m m m m ",
"m m m m m m m m m v m m m m m m m m m m m m m m m m m m m m m m m m m v m m m m m m m m m m m m m m ",
"m m m m m m m v m m m Z Z m m v m m m m m m m m m m m m m m m m m m m m m m m Z m m m m m m m Z m m ",
"m v m m m m m m m m m m m m m m m m m m m m m m m m m m m m m m m m m m m m m m m m m Z m m m m m m ",
"m m m m m m m m m m m m m m m m m m m m m m m m m m m m m m m m m Z m m m m m m m m m m m m m m m m ",
"m m m v m m m m m m m Z v m m m m m m m m m m m m m m m m m m m m m v m m m m m m m m m m m m m m m ",
"m m m m m m m m N m m m m m m v m m m m m m m m m m m m m m m m m m m m m m m m m m m m m m m m m m ",
"m m m m m m m m m m m m m m m m m m m m m m m m m m m m m m m m m m m m m m m m m m m m m m m m m m ",
"m m m m m m m m m m m m m m m m m m m m m m m m m m m m m m m m m m m m m m m m m m m m m m m m m m "
};
