/* XPM */
static char *_1292_858a200c518175ef756d2312c395a62deb4c6f30be612ed5e7250644751497e2[] = {
/* columns rows colors chars-per-pixel */
"50 50 95 2 ",
"   c black",
".  c #010000",
"X  c #000100",
"o  c #010005",
"O  c #000105",
"+  c #010204",
"@  c #020106",
"#  c #010206",
"$  c #000306",
"%  c #010207",
"&  c #020307",
"*  c #040710",
"=  c #06141F",
"-  c #051320",
";  c #071321",
":  c #061323",
">  c #041421",
",  c #061421",
"<  c #051522",
"1  c #071522",
"2  c #361E2B",
"3  c #371F2C",
"4  c #391D2B",
"5  c #391F2A",
"6  c #381E2B",
"7  c #381D2C",
"8  c #391D2C",
"9  c #391F2C",
"0  c #391E2D",
"q  c #3A1E2C",
"w  c #3A1E2D",
"e  c #172B36",
"r  c #192B37",
"t  c #182C37",
"y  c #152B38",
"u  c #172A38",
"i  c #162C39",
"p  c #182B39",
"a  c #192B39",
"s  c #182B3A",
"d  c #192C3A",
"f  c #38212B",
"g  c #38202D",
"h  c #3A202D",
"j  c #3E2230",
"k  c #3E2231",
"l  c #3F2331",
"z  c #3E2332",
"x  c #3F2332",
"c  c #3E2431",
"v  c #3F2234",
"b  c #412232",
"n  c #402432",
"m  c #402433",
"M  c #412234",
"N  c #402335",
"B  c #4B2D37",
"V  c #482E37",
"C  c #492E37",
"Z  c #482C38",
"A  c #492D39",
"S  c #4A2C38",
"D  c #4B2D39",
"F  c #482E39",
"G  c #482C3A",
"H  c #492D3B",
"J  c #4B2C3B",
"K  c #492F3A",
"L  c #4A2E3A",
"P  c #4C2E3A",
"I  c #4A2E3C",
"U  c #542B87",
"Y  c #542B89",
"T  c #562A89",
"R  c #542B8B",
"E  c #9F50F7",
"W  c #9F50F9",
"Q  c #A150F7",
"!  c #A051F8",
"~  c #A051FA",
"^  c #DD8BF7",
"/  c #DE8BF7",
"(  c #DD8BF9",
")  c #DF8CF8",
"_  c #F7CEF6",
"`  c #F8CFF7",
"'  c #F9CFF7",
"]  c #F8D0F5",
"[  c #F9D0F8",
"{  c #F6F6F6",
"}  c gray97",
"|  c #F8F6F7",
" . c #F6F8F7",
".. c #F8F6F9",
"X. c #F8F8F8",
/* pixels */
"x x x x x x x x x x x x x x x x x x x x x x x x l x x m x m v x l x x x x x x x x x x x x x x x x x ",
"x x x x x x x x x x x x x x k x x x x x x x x x x x x x x x x x x x x x x x x x x x x x x x x x x x ",
"x x x x x x x x x x m x x x x x x x x m m x x x x x x x x x x x x x x k x x x x x x x x x x x x x x ",
"x x x x x x x x x x x x x x x x x x x x x x x x m x x x x x x x x x x x x x x x x x x x x x x x x x ",
"x x x x x x x x x k x x x x x x x x x x x x x x x x x x x x x x m x x x x x x j x x x x x x x x x x ",
"x x x x x x x x x x x x x x x m x x x x x x x x m x x x x v x x x x x x A A x x x x x x x x x x x x ",
"x x x x x x x x x x x x x j H A x x x x x x x x v x x x x x I A A A m x A A A l x x x x x x x x x x ",
"x x x x x x x x k x x x l H A C x x A A A A x x x x x x x x A A A C x x 4 q q k x x x x x x x x x x ",
"x x m x x x x x b x x x x 9 9 9 b x D C A A x x k x A A A x w A H q x A A A x x A A x x x z x x x x ",
"m x x x x x m x x x A A x x A A A x 9 A A 9 z A C A A A Z x z 9 9 x x A A A A x A F x x x x x x x x ",
"x x x x x x x x x k A Z x Z D L A 9 x 9 9 x x A A F 9 9 9 x A A A x x 9 A A C x 9 9 x A Z A x x x x ",
"x x x x x l A A A h 9 9 x A A A 2 x k A A A l 9 9 6 x x x A A A A # x x 9 h @ m N x P A A 7 x x x x ",
"x x m x x x q A A A 9 x x 9 9 9 x x A A H A F 9 k x A A A A A L Z > : , A A @ - D A 6 9 5 k x x x x ",
"x x x k x x x 0 9 9 A A A C A C A k A A C A A 9 D A G A A A A A q q y , , A A * , A A A x A A x x x ",
"x x x x x A A z A A A A A A L A A x 9 9 A A A L H A C A A A A A D A D p , A Z * , A F A x 9 5 x x x ",
"x l k v x 9 9 x C A A A A A A D D A F A A A A A C A A A C A A A A A A p , A , * = A L A x x v x x x ",
"x x x x x m x k C A 9 A A A A A H A A A A H A A A : , , , , p p ; A L , , s = , A F D C A k A A x x ",
"x x x x Z A x A A C 9 A V F A A L Z A A A A , - , p , d p p , p i , % , , p p > A A A 9 9 x 9 9 x x ",
"x x x x 9 9 m 3 9 3 S A A A H A A A A } A , - u , p , , , , p 1 d p # , 1 E p E A H A k A A A x A A ",
"x H D L x A L A l D A A A A C A } } C A - i s , , , , a s p = d , , # , , r p , A A A L H A A x A A ",
"x 9 A A x D A A A Z A A Z 0 g 3 } F A , p , , D A A A a u p , u 1 # , O , p e A A A k A A F 9 x 9 9 ",
"x x 9 9 x 5 K A A x D C A x x x F } p , , A A A A A A A , p , 1 # , # , # A A A A A A 9 5 q x x x x ",
"x x x x x x 9 9 9 x A A A A ! A E p ; ; , A C A H A A p p , p p + < , , ,   A A # > A D A x z m x x ",
"x x x x z x k A L A Z A Z } ( ` ' p p , A H A A A A C , = p , $ , # , , #   . #   , A A 0 x k x x x ",
"x x x x x x x 9 H A A C E ^ ] ` } } E A H A A A A A F p i , # A L Z , #   & #     A Z x b x x x x A ",
"x A F x x N x x 9 9 H E  .` { E ` ` A A Z C A A A A E E ! p , Y A A Z A D # #   A A A x v x k x A A ",
"x L A A x x x x x A E ( ` } _ } Z A A A A A A H A A # # # E U # , A A A A A A A A Z L A c x v x 9 9 ",
"x 9 9 0 x b x b A E ) ` E ` X.X.A D L H A F A A i # , , : @ # # # , ; # A A A A A A A F A A A A H A ",
"M x H A A A L A Q ^ ` Q ` A } A A D D A Z A A t p ; = , # : o , , , , # O A A D A A A A D 9 F A A A ",
"v x A A F 3 6 X./ ` E ` A } } A A Z A A F A A p # O , , # , # , , , ,   $ # # I A A C C A x P A F 6 ",
"x x A A f v x ^ } [ } A A A A A B A A A A C A # # , ; # # = A L > ,         # > Z A A 9 x v 9 9 q x ",
"b x 9 9 x z x E ` ` A { | A ..A A A A A A A # & , p p C A A A A H A         R ~ D D Z A x x x x x x ",
"x x x v A F k ' W A A A A } D L A A C A A , , # p p , 9 9 x A A A C A # $     Y A H A A A x A A x x ",
"k x x x A A x C A A A A A A A A A A A A + E R O , , x m k A L A A A A # # X # A A A A 9 9 x 6 9 x x ",
"x x x x 9 9 x 9 9 L A G A A A A 9 H A A # T $ # x x A A A A A A x 9 6 L     A A A A A x C F A x x x ",
"v x x x x A D K l A A A A 9 9 9 x A F # # # A A A A H D A L L H A A x 9 # A J F A A C A L A D x x x ",
"x x m x x C A A A A A A A A H A A A , , # q A A A A 9 x x 0 D A A A A L   A A A D A x A A A 9 m x x ",
"l x b l z x A L D x A A A A A L A , p x x x A A A A L x l x 0 9 A A C 9 # O A A x x x 9 9 9 m x x x ",
"v x k x x x q 9 9 x 9 9 A A A g 9 u # x x z 9 6 A F A x x x x k L A L n A A A 5 v A A L D x l x x x ",
"x x k x x x x L A F A x 5 A A A x , , l k m x x 9 9 9 x x x x x 9 q 9 x A A A x x x A A 9 x x x x x ",
"x x x x k x x 8 A A q z z L A L x x x x x x x x x x x x x x x x x x k x w w 8 x x x 8 w x x x x x x ",
"x x x x x x m x 3 9 c x x 9 9 3 x x x x x x x x x x x x x x x x x x x x x x x x x x x x x x x x x x ",
"x x x x x x x x x k x x x x x x x x x x x x x x x x x x x x x x x x x k x x x x x x x x x x x x x x ",
"x x x x x x x k x x x m m x x k x x x x x x x x x x x x x x x x x x x x x x x m x x x x x x x m x x ",
"x k x x x x x x x x x x x x x x x x x x x x x x x x x x x x x x x x x x x x x x x x x m x x x x x x ",
"x x x x x x x x x x x x x x x x x x x x x x x x x x x x x x x x x m x x x x x x x x x x x x x x x x ",
"x x x k x x x x x x x m k x x x x x x x x x x x x x x x x x x x x x k x x x x x x x x x x x x x x x ",
"x x x x x x x x v x x x x x x k x x x x x x x x x x x x x x x x x x x x x x x x x x x x x x x x x x ",
"x x x x x x x x x x x x x x x x x x x x x x x x x x x x x x x x x x x x x x x x x x x x x x x x x x ",
"x x x x x x x x x x x x x x x x x x x x x x x x x x x x x x x x x x x x x x x x x x x x x x x x x x "
};
