/* XPM */
static char *_8540_ddcf37c53c4e72a7a6969c4216103a6db98c7c46fd61984ade7c9e09f7342485[] = {
/* columns rows colors chars-per-pixel */
"50 50 97 2 ",
"   c black",
".  c #010000",
"X  c #000100",
"o  c #010101",
"O  c #000203",
"+  c #000105",
"@  c #010204",
"#  c #000304",
"$  c #020106",
"%  c #010206",
"&  c #000306",
"*  c #010207",
"=  c #020307",
"-  c #030710",
";  c #040710",
":  c #06141F",
">  c #031320",
",  c #051320",
"<  c #061220",
"1  c #071321",
"2  c #061323",
"3  c #041421",
"4  c #061421",
"5  c #071522",
"6  c #361E2B",
"7  c #371F2C",
"8  c #391D2B",
"9  c #391F2A",
"0  c #381E2B",
"q  c #381D2C",
"w  c #391D2C",
"e  c #391F2C",
"r  c #391E2D",
"t  c #3A1E2C",
"y  c #3A1E2D",
"u  c #172B36",
"i  c #182C37",
"p  c #172A38",
"a  c #162C39",
"s  c #182B39",
"d  c #192B39",
"f  c #182B3A",
"g  c #192C3A",
"h  c #38202D",
"j  c #3A202D",
"k  c #3D2231",
"l  c #3E2230",
"z  c #3E2231",
"x  c #3F2331",
"c  c #3E2133",
"v  c #3E2332",
"b  c #3F2332",
"n  c #3E2431",
"m  c #3F2234",
"M  c #3E2334",
"N  c #402131",
"B  c #412232",
"V  c #402433",
"C  c #402335",
"Z  c #482D36",
"A  c #4B2D37",
"S  c #482E37",
"D  c #492E37",
"F  c #472D38",
"G  c #482C38",
"H  c #492D39",
"J  c #4A2C38",
"K  c #4B2D39",
"L  c #482E39",
"P  c #482C3A",
"I  c #492D3B",
"U  c #492F3A",
"Y  c #482E3B",
"T  c #4A2E3A",
"R  c #4C2E3A",
"E  c #4A2E3C",
"W  c #542B89",
"Q  c #542D8A",
"!  c #9E4FF6",
"~  c #9F51F5",
"^  c #9F50F7",
"/  c #9E51F7",
"(  c #9F50F9",
")  c #A150F7",
"_  c #A051F8",
"`  c #A251F8",
"'  c #DD8BF7",
"]  c #DD8BF9",
"[  c #F8CFF7",
"{  c #F9CFF7",
"}  c #F8CFF9",
"|  c #F9D0F8",
" . c #F7F7F5",
".. c #F5F7F6",
"X. c gray97",
"o. c #F6F8F5",
"O. c #F8F8F8",
/* pixels */
"b b b b b b b b b b b b b b b b b b b b b b b b x b b V b V m b x b b b b b b b b b b b b b b b b b ",
"b b b b b b b b b b b b b b z b b b b b b b b b b b b b b b b b b b b b b b b b b b b b b b b b b b ",
"b b b b b b b b b b V b b b b b b b b V V b b b b b b b b b b b b b b z b b b b b b b b b b b b b b ",
"b b b b b b b b b b b b b b b b b b b b b b b b V b b b b b b b b b b b b b b b b b b b b b b b b b ",
"b b b b b b b b b z b b b b b b b b b b b b b b b b b b b b b b V b b b b b b l b b b b b b b b b b ",
"b b b b b b b b b b b b b b b V b b b b b b b b V b b b b m b b b b b b H H b b b b b b b b b b b b ",
"b b b b b b b b b b b b b l I H b b b b b b b b m b b b b b E H H H V b H H H x b b b b b b b b b b ",
"b b b b b b b b z b b b x I H D b b H H H H b b b b b b b b H H H D b b 8 t t z b b b b b b b b b b ",
"b b V b b b b b B b b b b e e e B b K D H H b b z b H H H b y H H r x H H I b B H H B b b b m b b b ",
"V b b b b b V b b b H H b b H H H b e H H e v H D H H H G b v e e b b H G H H b H H b b b b m b b b ",
"b b b b b b b b b z H G b G K T H e b e e b b H H L e e e b H H H M b j H H T c e e b H H H b v b b ",
"b b b b b x H H H j e e b H H H 6 b z H H H x e e 0 b b b H H H H D b V e e e b b b H H H 7 b b b b ",
"b b V b b b t H H H e b b e e e b b H H I H L e z b H H H H H T D % b H H H % H K A e e e b C b b b ",
"b b b z b b b r e e H H H D H D H z H H D H H e K H P H H H H H 7 4 4 , H D % 4 H I H H b H H b b b ",
"b b b b b H H v H H H H H H T H H b e e H H H T I H D H H H H H T H s > 4 L 4 ; > H K H m 0 e b b b ",
"b x z m b e e b D H H H H H H K K H L H H H H H D H H H D H H H H K H s 4 H T - 4 I H H B b b b b b ",
"b b b b b V b z H D q H H H H H H H H L H H L H H I H H H H Y H T H H s 4 H 4 ; 4 H G D H b H H b b ",
"b b b b G H b H H H e H H H H H H H H H H H H H H 2 4 4 < 4 s s 4 H H 4 4 s 4 2 H H K 9 r b e j b b ",
"b b b b e e V 7 e e H H H H H H H H H H H H 4 4 4 s , a s s 4 s s , % 4 4 s s 4 H H H b H H S b H H ",
"b I K T b H T H B H G F H H H H H H H H H 4 4 s 4 s 4 4 4 4 s 4 s s + 4 4 ^ s ^ T H H H H H H b H H ",
"b e H H b K H H D H K H H 0 e e b H K 4 4 s s 4 4 5 4 d d f , s 2 4 % 1 4 g s 4 H I b H K H e b e e ",
"b b e e b 9 U H G b H H H m b b H H i 4 s 4 4 H U H H a s s 4 s 4 % 4 % , s s H H H H e e j B b b b ",
"b b b b b b e e e v D H H H H H T 2 4 4 : T H H H H I K 4 u 4 : % 4 % 4 % H H H H H L H I B b b b b ",
"b b b b v b z H H H I H I T H H O.s 4 4 H D H H H H H 4 a 4 s s % : 4 , 4 X T H % 2 K H e b b z b b ",
"b b b b b b b r H H T I H H ! [ { s s , H G H H H H H 4 4 s s % 4 + 4 4 %     *   4 H b b b b b b H ",
"b H H b b x b B e 9 H I H ( ' [ ^ [ _ H H H H I H L H p s 4 % H H H 3 %   # %     H K x b b b b H H ",
"b H H H b b b b b H H H ) ' ..^ [ } H H H H H K H H ^ ^ ^ s f W H D G H H % %   R H H H m b b b e e ",
"b e j e b b b b H H H ~ ' [ ^ [ H H H H I K H H H H % % % _ W % , H K H K K H H H H K H T H I T I H ",
"b k K H H L H H H H X.' [ ! [ G H H H H H H H H H + 2 4 1 % % & % 3 4 % % H H H H H H K H 9 H H H H ",
"B V H H H e t H H ^ ' [ ^ [ H H H H L H H H H H g s 1 4 % 4 % 4 : 1 4   % % & H L H I H H b I H L 0 ",
"x b H H e b b H /  .| ^ [ H H H H H H H J K H H s $ 4 4 % 4 & 4 4 4 4   o   % 4 H L H e b m e e t b ",
"b b e e b b b ) ] [ ^ [ X.H H H T H I L L H H H % % : + % 4 H K 4 2           * I H H H b b b b b b ",
"b b b b K L z ] [ [ [ H H G H H H Z H H H H 4 = % 4 a g e z H S H K H % %   W ^ H I H H H b H H b b ",
"b b b m G H x ^ [ [ H X.H H L I H H H H H 4 3 4 % s s > b L I H K D H % % %   W H H H e e b 0 e b b ",
"b b b b e e b [ ( H X.H H H H I t H H H % ` Q % O 4 3 H H H H G b e e H   . H H H H H b D L H b b b ",
"b b b b x X.L X.x H H H H 7 t e b H H % = W % H R H H G H H H I H P b e % H K H H H D H T H K b b b ",
"b b x b b H H H H H H H H L L H H H 4 4 @ % H D H H e b b e H H H H H I . T H L K H b H H H e V b b ",
"B N b b N b H H H b o.H H H H H I 4 s 4 b b H H H H H b b b e e S H H e % % H D b b b e e e V b b b ",
"b b b V x v e e e b e j H H H e e s % b b b e e H H H b b B b m H T T b H H H e m H H T K b x b b b ",
"b x b V b b b H E H H b e H H H b 4 4 b v B b b h j e b b b b b e e e b H K G V b b H H e b b b b b ",
"b b b b z b b w H H t v v T H T b b b b b b b b b b b b b b b b b b z b y y w b b b w y b b b b b b ",
"b b b b b b V b 7 e n b b e e 7 b b b b b b b b b b b b b b b b b b b b b b b b b b b b b b b b b b ",
"b b b b b b b b b z b b b b b b b b b b b b b b b b b b b b b b b b b z b b b b b b b b b b b b b b ",
"b b b b b b b z b b b V V b b z b b b b b b b b b b b b b b b b b b b b b b b V b b b b b b b V b b ",
"b z b b b b b b b b b b b b b b b b b b b b b b b b b b b b b b b b b b b b b b b b b V b b b b b b ",
"b b b b b b b b b b b b b b b b b b b b b b b b b b b b b b b b b V b b b b b b b b b b b b b b b b ",
"b b b z b b b b b b b V z b b b b b b b b b b b b b b b b b b b b b z b b b b b b b b b b b b b b b ",
"b b b b b b b b m b b b b b b z b b b b b b b b b b b b b b b b b b b b b b b b b b b b b b b b b b ",
"b b b b b b b b b b b b b b b b b b b b b b b b b b b b b b b b b b b b b b b b b b b b b b b b b b ",
"b b b b b b b b b b b b b b b b b b b b b b b b b b b b b b b b b b b b b b b b b b b b b b b b b b "
};
