/* XPM */
static char *_8451_434463d1e16e0c04ed59d0f77a1f9ade8e52220e413c873d642df622493a62e1[] = {
/* columns rows colors chars-per-pixel */
"50 50 92 1 ",
"  c black",
". c #010000",
"X c #000002",
"o c #000105",
"O c #010204",
"+ c #010206",
"@ c #000306",
"# c #010207",
"$ c #040710",
"% c #040612",
"& c #06121E",
"* c #06141F",
"= c #051320",
"- c #071321",
"; c #061323",
": c #071323",
"> c #041421",
", c #061421",
"< c #041423",
"1 c #071522",
"2 c #361E2B",
"3 c #371F2C",
"4 c #391D2B",
"5 c #391F2A",
"6 c #381E2B",
"7 c #381D2C",
"8 c #391D2C",
"9 c #391F2C",
"0 c #391E2D",
"q c #3A1E2C",
"w c #3A1E2D",
"e c #172B36",
"r c #182C37",
"t c #172A38",
"y c #162C39",
"u c #172D3A",
"i c #182B39",
"p c #192B39",
"a c #182B3A",
"s c #192C3A",
"d c #3A202D",
"f c #3D2231",
"g c #3E2230",
"h c #3E2231",
"j c #3F2331",
"k c #3E2133",
"l c #3E2332",
"z c #3F2332",
"x c #3E2431",
"c c #3F2433",
"v c #3F2234",
"b c #412232",
"n c #402432",
"m c #402433",
"M c #472D36",
"N c #492E37",
"B c #472D38",
"V c #482C38",
"C c #492D39",
"Z c #4A2C38",
"A c #4B2D39",
"S c #482E39",
"D c #4A2F38",
"F c #482C3A",
"G c #492D3B",
"H c #4B2C3B",
"J c #492F3A",
"K c #4A2E3A",
"L c #4C2E3A",
"P c #4A2E3C",
"I c #542B89",
"U c #542B8B",
"Y c #552C8A",
"T c #9E4FF6",
"R c #9F51F5",
"E c #9F50F7",
"W c #9F50F9",
"Q c #9F52FA",
"! c #A14FF9",
"~ c #A150F7",
"^ c #A051F8",
"/ c #A250FA",
"( c #DD8AF6",
") c #DD8BF7",
"_ c #DD8CF5",
"` c #DD8BF9",
"' c #DE8CF8",
"] c #F8CFF7",
"[ c #F9CFF7",
"{ c #F8CFF9",
"} c #F6D0F5",
"| c #F6D0F7",
/* pixels */
"zzzzzzzzzzzzzzzzzzzzzzzzjzzmzmvzjzzzzzzzzzzzzzzzzz",
"zzzzzzzzzzzzzzhzzzzzzzzzzzzzzzzzzzzzzzzzzzzzzzzzzz",
"zzzzzzzzzzmzzzzzzzzmmzzzzzzzzzzzzzzhzzzzzzzzzzzzzz",
"zzzzzzzzzzzzzzzzzzzzzzzzmzzzzzzzzzzzzzzzzzzzzzzzzz",
"zzzzzzzzzhzzzzzzzzzzzzzzzzzzzzzzmzzzzzzgzzzzzzzzzz",
"zzzzzzzzzzzzzzzmzzzzzzzzmzzzzvzzzzzzCCzzzzzzzzzzzz",
"zzzzzzzzzzzzzgGCzzzzzzzzvzzzzzPCCCmzCCCjzzzzzzzzzz",
"zzzzzzzzhzzzjGCNzzCCCCzzzzzzzzCCCNzz4qqhzzzzzzzzzz",
"zzmzzzzzbzzzz999bzANCCzzhzCCCzwCC9zNCNzzCCzhzzzzzz",
"mzzzzzmzzzCCzzCCCz9CC9lCNCCCVzl93zzNCCChCCzmzzzzzz",
"zzzzzzzzzhCVzVAKC9z99zzCCS999zCCCzz0CCCv99zCCCvzzz",
"zzzzzjCCCd99zCCC2zhCCCj996zzzCCCCNzz999zvvCNN9zvzz",
"zzmzzzqCCC9zz999zzCCGCS9hzCCCCCKCClCCKCZCC995zzzzz",
"zzzhzzz099CCCNCNChCCNCC9ACFCCCCC9+zCCCoCCCCSvCCzzz",
"zzzzzCClCCCCCCKCCz99CCCKGCNCCCCCC,,,NC+;KSSCm99zzz",
"zjhvz99zNCCCCCCAACSCCCCCNCCCNCCCACi,-N,$>KJCzzzzzz",
"zzzzzmzhCN7CCCCCCCACKCCCCSCCCCCCCCCi:CG$,CCNCzCCzz",
"zzzzVCzCCC9CCCCCCCCCCCCCACq99zCCCCCy,S,%,VK90z99zz",
"zzzz99m399CCCCCCCCCCGKz99,>,,,si,CC,=r>,CCCvCCCzCC",
"zGAKzCKCbCVBCCCCCNCKCS,,,y,isi,iy,o*,ii,CACCCCKzCC",
"z9CCzACCNCACC699zCCC=,,i,a,,,=i,ip+,,!iECCzCCA9z99",
"zz99z5JCVzCCCvzzCCC,,ii,>,,sii*i,>+,,ii>CSK669zzzz",
"zzzzzz999lNCCCCCC,i,p,,CCCAyii,i,+,+,iiKACCCKzzzzz",
"zzzzlzhCCCGCGKCC^y,,,CCCCCCC,i&,+,+=@CACGCKC9zbzzz",
"zzzzzzz0CCCCCCE][ii=CVCCCCC,y,,i@,,,=CCSCBCzzzzzzC",
"zCCzzjzb90CCSE(]E]^CCCCGGCC=,tp+,+;,, CK#,SzjhzlCC",
"zCCCzzzzzCCCE)]E]{CCCCCAGCAas,OKNC,,+X + ,CCzzzz99",
"z9d9zzzzCCCE']E|CCCCGACCNHEEEiuICCS+ ++  NCCCLCCGC",
"zfACCSCCKCR(]E{CCCCCCCCCAC+++QI+,CCCCo+ SCCCK9CCCC",
"bmCCC9qCCE_]T]CCCCSCCCCCC+,,,++++,,.+KCCCACCVvCCS6",
"jzCC9zzCE)]E|ACCCCCCZACCie,,+<+,,,<.+++CACC9zz96qz",
"zz99zzz~)]T}NCCCKCGSSCCCa+,,+,+;,=1.X +=CACCzhvzzz",
"bvzbCCz`]]]SCCCCCCLCCCkC+++++,CC=>C    oCGCCCzCCzz",
"zzzzCCz/[{CSCCCNGCCCCC,++>ii,KCCCCC+++UECCC99z69zz",
"zlzz09z]ENVVNCCN5CCCC,,,+iy,CCCGj39C ++ICCCzNSCzzz",
"zlzzzCCCzCCCC939zCAC@WYO+,,KCCCCCCz9 XCCCCNCKCAzzz",
"zmzzhCCCCCCCCCNCHC+>,I+ACK9zz0CCCCCN CVCACzCCC9mzz",
"zzjhzzCCSzCCCCVCC,i,+zBCCPCzzz09KDC0@+CCzzz999mzzz",
"zzvzzl699z99CCC59i+mzz99VCCznzzzCCCvCCC9vCCKAzjzzz",
"zczzzzbCGKCz9CVCz,,zzzzz999zblzh399zCCMzzzCC9zzzzz",
"zzzzhzz8CCqllKCKzzzzzzzzzzzzzzzzzzhzww8zzz8wzzzzzz",
"zzzzzzmz39xzz993zzzzzzzzzzzzzzzzzzzzzzzzzzzzzzzzzz",
"zzzzzzzzzhzzzzzzzzzzzzzzzzzzzzzzzzzhzzzzzzzzzzzzzz",
"zzzzzzzhzzzmmzzhzzzzzzzzzzzzzzzzzzzzzzzmzzzzzzzmzz",
"zhzzzzzzzzzzzzzzzzzzzzzzzzzzzzzzzzzzzzzzzzzmzzzzzz",
"zzzzzzzzzzzzzzzzzzzzzzzzzzzzzzzzzmzzzzzzzzzzzzzzzz",
"zzzhzzzzzzzmhzzzzzzzzzzzzzzzzzzzzzhzzzzzzzzzzzzzzz",
"zzzzzzzzvzzzzzzhzzzzzzzzzzzzzzzzzzzzzzzzzzzzzzzzzz",
"zzzzzzzzzzzzzzzzzzzzzzzzzzzzzzzzzzzzzzzzzzzzzzzzzz",
"zzzzzzzzzzzzzzzzzzzzzzzzzzzzzzzzzzzzzzzzzzzzzzzzzz"
};
