/* XPM */
static char *_5790_c582103ce1f5def86aadb2549653c2b48fec51169472856d3819a617edcf9bfe[] = {
/* columns rows colors chars-per-pixel */
"50 50 96 2 ",
"   c black",
".  c #000100",
"X  c #000002",
"o  c #010005",
"O  c #010204",
"+  c #020106",
"@  c #010206",
"#  c #000306",
"$  c #010207",
"%  c #020307",
"&  c #000407",
"*  c #03060F",
"=  c #040710",
"-  c #050811",
";  c #06141F",
":  c #031320",
">  c #051320",
",  c #061323",
"<  c #071323",
"1  c #041421",
"2  c #061421",
"3  c #071522",
"4  c #071424",
"5  c #361E2B",
"6  c #371F2C",
"7  c #391D2B",
"8  c #391F2A",
"9  c #381E2B",
"0  c #381D2C",
"q  c #391D2C",
"w  c #391F2C",
"e  c #391E2D",
"r  c #3A1E2C",
"t  c #3A1E2D",
"y  c #182C37",
"u  c #172A38",
"i  c #162C39",
"p  c #182B39",
"a  c #192B39",
"s  c #182B3A",
"d  c #192C3A",
"f  c #192C3B",
"g  c #3A202B",
"h  c #3A202D",
"j  c #3D2231",
"k  c #3E2230",
"l  c #3E2231",
"z  c #3F2331",
"x  c #3E2332",
"c  c #3F2332",
"v  c #3E2431",
"b  c #3F2433",
"n  c #3F2234",
"m  c #402131",
"M  c #412232",
"N  c #402433",
"B  c #402335",
"V  c #482D36",
"C  c #4B2D37",
"Z  c #492E37",
"A  c #472D38",
"S  c #482C38",
"D  c #492D39",
"F  c #4B2D39",
"G  c #482E39",
"H  c #482C3A",
"J  c #492D3B",
"K  c #4B2C3B",
"L  c #492F3A",
"P  c #4A2E3A",
"I  c #4A2E3C",
"U  c #542B89",
"Y  c #532C89",
"T  c #552C8A",
"R  c #9E4FF6",
"E  c #9F51F5",
"W  c #9F50F7",
"Q  c #A150F7",
"!  c #A051F8",
"~  c #A051FA",
"^  c #A250FA",
"/  c #DE8BF5",
"(  c #DD8AF6",
")  c #DD8BF7",
"_  c #DE8BF7",
"`  c #DD8CF5",
"'  c #DD8BF9",
"]  c #DE8CF8",
"[  c #F8CFF7",
"{  c #F9CFF7",
"}  c #F8CFF9",
"|  c #F6D0F5",
" . c #F6D0F7",
".. c #F8D0F5",
"X. c #F9D1F6",
"o. c #F9D0F8",
/* pixels */
"c c c c c c c c c c c c c c c c c c c c c c c c z c c N c N n c z c c c c c c c c c c c c c c c c c ",
"c c c c c c c c c c c c c c l c c c c c c c c c c c c c c c c c c c c c c c c c c c c c c c c c c c ",
"c c c c c c c c c c N c c c c c c c c N N c c c c c c c c c c c c c c l c c c c c c c c c c c c c c ",
"c c c c c c c c c c c c c c c c c c c c c c c c N c c c c c c c c c c c c c c c c c c c c c c c c c ",
"c c c c c c c c c l c c c c c c c c c c c c c c c c c c c c c c N c c c c c c k c c c c c c c c c c ",
"c c c c c c c c c c c c c c c N c c c c c c c c N c c c c n c c c c c c D D c c c c c c c c c c c c ",
"c c c c c c c c c c c c c k J D c c c c c c c c n c c c c c I D D D N c D D D z c c c c c c c c c c ",
"c c c c c c c c l c c c z J D Z c c D D D D c c c c c c c c D D D Z c c 7 r r l c c c c c c c c c c ",
"c c N c c c c c M c c c c w w w M c F Z D D c c l c D D D c t D D w M D P D c c D D M c c c n c c c ",
"N c c c c c N c c c D D c c D D D c w D D w x D Z D D D S c x w 6 c c D F D F c D D c c c c n c c c ",
"c c c c c c c c c l D S c S F P D w c w w c c D D G w w w c D D D M c w D J G m w w c D D D c x c c ",
"c c c c c z D D D h w w c D D D 5 c l D D D z w w 9 c c c D D D Z D z c 9 w r c c c D D D 6 c c c c ",
"c c N c c c r D D D w c c w w w c c D D J D G w l c D D D D D P D # c D D D @ D F C w w w c B c c c ",
"c c c l c c c e w w D D D Z D Z D l D D Z D D w F D H D D D D D w 2 2 , D D @ 2 D J D D c D D c c c ",
"c c c c c D D x D D D D D D P D D c w w D D D P J D Z D D D D D D D s > 1 D D * : D F D n 9 w c c c ",
"c z l n c w w c Z D D D D D D F F D G D D D D D Z D D D Z D D D D D Z p 2 D D - 2 J D D M c c c c c ",
"c c c c c N c l D Z 0 D D D D D D S D D G D D D D D D D D D F D D P D p 2 P 1 = 2 P D D D c D D c c ",
"c c c c S D c D D D w D D D D D J D D D F D S D J 2 2 2 ; 2 p p 2 D D 2 2 p 2 2 D D Z w 6 c w 6 c c ",
"c c c c w w N 6 w w D D D D D D D D D S L S 2 1 2 p 3 p d p 2 p p 2 @ 2 < p u 2 D D D c Z D D c D D ",
"c J F P c D P D M D S A D D D D D D D S 2 2 2 p 2 p 2 2 2 2 a 2 p p @ > 2 ! p W D D Z D D D D c D D ",
"c w D D c F D D Z D F D D 9 w w c D D , 2 p p 2 4 ; 2 p p p 2 p 2 ; @ 2 , p p ; D P c D D D w N w w ",
"c c w w c 8 L D S c D D D n c c D F p 2 p > 2 D D D D p p p 2 p 2 $ 2 @ 2 p p Z D F D h w w c c c c ",
"c c c c c c w w w x Z D D D D D D > 2 2 2 P D D D S D F 2 p > 2 o 2 @ @ @ F D D G Z D D D c c c c c ",
"c c c c x c l D D D J D J P D D ~ p 2 , D S D D J D P p p 2 d p @ , 2 3 2 D D D F G D D w c c c c c ",
"c c c c c c c e D D D D D D W [ [ y p : D S D D D D D 2 : f 2 @ > @ 2 2 1 D D Z D D S c j c c l c D ",
"c D D c c z c M w e D D G W ( [ W [ W S D G D D G D D p p 2 @ D J D 2 ; 2   D D @ 1 D c c c c c D D ",
"c D D D c c c c c D D D W ) [ W [ [ D D D D A D D F W W W p p U S D D 2 @     +   2 D Z c c M c w w ",
"c w h w c c c c D D D W ] [ W  .D P D D D D Z D D D @ @ @ W U @ ) V D     @ @     D D D D D D D J D ",
"c j F D D G D D P D E ( [ W } D D F D G D D D D D p 2 2 3 @ @ @ _ 2 2 2 D . .   S D D P D w G D D D ",
"M N D D D w r D D W ` [ R [ D D D D D P J D D J p a 2 2 O 2 @ > ) 2 2   $ @ @ _ { D D D D c Z P G 9 ",
"z c D D w c c D W ) [ W  .F D D D D D D D D D ) ) $ 2 2 @ 2 & ) [ 2 2     X ) 2 ) ..D r c c w 6 r c ",
"c c w w c c c Q ) [ R | Z D D D D D D F D P D D ) @ 2 @ % 2 Z ) [ :           @ D ) S D c x c c c c ",
"M n c M D D c ' [ [ [ G D D D D D D P D D D 2 @ @ ' p i w c D D ) ) ]   #   U W G ' S D J c D K c c ",
"c c c c D D c ^ { } D G D D D Z D S } _ D 2 2 , @ p _ 2 c D D D D D D # @ @   Y ) [ D w w c w w c c ",
"c x c c e w c [ W Z S S Z D D Z w [ ] ' $ ! T @ @ 2 2 ) D D F D c w w )     S ) [ S D c Z D D c c c ",
"c x c c c D D D c D D D D w 6 w c } ) @ @ T P D D D P _ D D Z D D D ) w @ D ` [ F D D D D D D c c c ",
"c N c c l D D D D D D D D D Z D D D [ 2 @ w S D _ D w o.c 8 D D D D S ]   D P D D D c D D D w M c c ",
"c c z l c c D D G c D D D D S D D 2 / 2 c c D P D _ ) [ c c w w D D D w @ @ D D c c c g w w c c c c ",
"c c n c c x 9 w w c w w D D D 8 w p @ ' c c r w D Z X.o.n x c c D D D c D D D w l D D D S c c z c c ",
"c b c c c c M D J P D c w D S D n ; 2 ) l c c c w w h M l c c c h 5 w c D J D c c M D D w z l c c c ",
"c c c c l c c q D D r x x P D P c c c c c c c c c c c c c c c c c c l c t t q c c c q t c c c c c c ",
"c c c c c c N c 6 w v c c w w 6 c c c c c c c c c c c c c c c c c c c c c c c c c c c c c c c c c c ",
"c c c c c c c c c l c c c c c c c c c c c c c c c c c c c c c c c c c l c c c c c c c c c c c c c c ",
"c c c c c c c l c c c N N c c l c c c c c c c c c c c c c c c c c c c c c c c N c c c c c c c N c c ",
"c l c c c c c c c c c c c c c c c c c c c c c c c c c c c c c c c c c c c c c c c c c N c c c c c c ",
"c c c c c c c c c c c c c c c c c c c c c c c c c c c c c c c c c N c c c c c c c c c c c c c c c c ",
"c c c l c c c c c c c N l c c c c c c c c c c c c c c c c c c c c c l c c c c c c c c c c c c c c c ",
"c c c c c c c c n c c c c c c l c c c c c c c c c c c c c c c c c c c c c c c c c c c c c c c c c c ",
"c c c c c c c c c c c c c c c c c c c c c c c c c c c c c c c c c c c c c c c c c c c c c c c c c c ",
"c c c c c c c c c c c c c c c c c c c c c c c c c c c c c c c c c c c c c c c c c c c c c c c c c c "
};
