/* XPM */
static char *_4306_b99133ac52e8474923eafcf93bc33011619a7ea798911f11aacdb8457b149481[] = {
/* columns rows colors chars-per-pixel */
"50 50 95 2 ",
"   c black",
".  c #010000",
"X  c #000002",
"o  c #010005",
"O  c #000105",
"+  c #010204",
"@  c #020305",
"#  c #010206",
"$  c #000306",
"%  c #010207",
"&  c #03060F",
"*  c #040710",
"=  c #050811",
"-  c #06141F",
";  c #031320",
":  c #051320",
">  c #061220",
",  c #071321",
"<  c #061323",
"1  c #041421",
"2  c #061421",
"3  c #041423",
"4  c #071522",
"5  c #361E2B",
"6  c #371F2C",
"7  c #391D2B",
"8  c #391F2A",
"9  c #381E2B",
"0  c #381D2C",
"q  c #391D2C",
"w  c #391F2C",
"e  c #391E2D",
"r  c #3A1E2C",
"t  c #3A1E2D",
"y  c #182C37",
"u  c #172A38",
"i  c #162C39",
"p  c #182B39",
"a  c #182B3A",
"s  c #192C3A",
"d  c #3A202D",
"f  c #3D2231",
"g  c #3E2230",
"h  c #3E2231",
"j  c #3F2331",
"k  c #3E2133",
"l  c #3E2332",
"z  c #3F2332",
"x  c #3E2431",
"c  c #3F2433",
"v  c #3F2234",
"b  c #402131",
"n  c #412232",
"m  c #402433",
"M  c #402335",
"N  c #4B2D37",
"B  c #492E37",
"V  c #472D38",
"C  c #482C38",
"Z  c #492D39",
"A  c #4B2D39",
"S  c #482E39",
"D  c #4A2F38",
"F  c #482C3A",
"G  c #492D3B",
"H  c #492F3A",
"J  c #4A2E3A",
"K  c #4A2E3C",
"L  c #542B89",
"P  c #532C89",
"I  c #552C8A",
"U  c #9E4FF6",
"Y  c #9F51F5",
"T  c #9F50F7",
"R  c #9F50F9",
"E  c #A150F7",
"W  c #A051FA",
"Q  c #A250FA",
"!  c #DC8AF6",
"~  c #DD8AF6",
"^  c #DD8BF7",
"/  c #DE8BF7",
"(  c #DB8CF7",
")  c #DD8CF5",
"_  c #DD8BF9",
"`  c #DE8AF9",
"'  c #DE8CF8",
"]  c #F7CEF6",
"[  c #F8CFF7",
"{  c #F9CFF7",
"}  c #F8CFF9",
"|  c #F6D0F5",
" . c #F6D0F7",
".. c #F9D0F8",
"X. c #FAD0F8",
/* pixels */
"z z z z z z z z z z z z z z z z z z z z z z z z j z z m z m v z j z z z z z z z z z z z z z z z z z ",
"z z z z z z z z z z z z z z h z z z z z z z z z z z z z z z z z z z z z z z z z z z z z z z z z z z ",
"z z z z z z z z z z m z z z z z z z z m m z z z z z z z z z z z z z z h z z z z z z z z z z z z z z ",
"z z z z z z z z z z z z z z z z z z z z z z z z m z z z z z z z z z z z z z z z z z z z z z z z z z ",
"z z z z z z z z z h z z z z z z z z z z z z z z z z z z z z z z m z z z z z z g z z z z z z z z z z ",
"z z z z z z z z z z z z z z z m z z z z z z z z m z z z z v z z z z z z Z Z z z z z z z z z z z z z ",
"z z z z z z z z z z z z z g G Z z z z z z z z z v z z z z z K Z Z Z m z Z Z Z j z z z z z z z z z z ",
"z z z z z z z z h z z z j G Z B z z Z Z Z Z z z z z z z z z Z Z Z B z z 7 r r h z z z z z z z z z z ",
"z z m z z z z z n z z z z w w w n z A B Z Z z z h z Z Z Z z t Z Z w n Z J Z z z Z Z n z z z v z z z ",
"m z z z z z m z z z Z Z z z Z Z Z z w Z Z w l Z B Z Z Z C z l w 6 z z Z A Z A z Z Z z z z z v z z z ",
"z z z z z z z z z h Z C z C A J Z w z w w z z Z Z S w w w z Z Z Z n z w Z G S b w w z Z Z Z z l z z ",
"z z z z z j Z Z Z d w w z Z Z Z 5 z h Z Z Z j w w 9 z z z Z Z Z B Z j z 9 w r z z z Z Z Z 6 z z z z ",
"z z m z z z r Z Z Z w z z w w w z z Z Z G Z S w h z Z Z Z Z Z J Z $ z Z Z Z # Z A N w w w z M z z z ",
"z z z h z z z e w w Z Z Z B Z B Z h Z Z B Z Z w A Z F Z Z Z Z Z w 2 2 < Z Z # 2 Z G Z Z z Z Z z z z ",
"z z z z z Z Z l Z Z Z Z Z Z J Z Z z w w Z Z Z J G Z B Z Z Z Z Z Z Z a : 1 Z Z & ; Z A Z v 9 w z z z ",
"z j h v z w w z B Z Z Z Z Z Z A A Z S Z Z Z Z Z B Z Z Z B Z Z Z Z Z B p 2 Z Z = 2 G Z Z n z z z z z ",
"z z z z z m z h Z B 0 Z Z Z Z Z Z C Z Z S Z Z Z Z Z Z B Z A Z Z Z Z H p 2 Z 1 * 2 J Z Z Z z Z Z z z ",
"z z z z C Z z Z Z Z w Z Z Z Z Z G Z Z Z A Z C Z Z 2 2 - 2 2 p p : Z Z 2 2 p 2 3 Z Z B w 6 z w 6 z z ",
"z z z z w w m 6 w w Z Z Z Z Z Z Z Z Z C H C 2 1 2 p 2 p p s 4 i p 2 O - 2 u p - Z Z Z z B Z Z z Z Z ",
"z G A J z Z J Z n Z C V Z Z Z Z Z Z Z C 2 2 2 p 2 a 2 2 2 2 p 2 i p # 2 > T p T Z Z B Z Z Z Z z Z Z ",
"z w Z Z z A Z Z B Z A Z Z 9 w w z Z Z < 2 p p 2 2 2 2 p p p 2 y 2 2 # 2 - p p 2 Z J z Z Z Z w m w w ",
"z z w w z 8 H Z C z Z Z Z v z z Z A p 2 p : 2 Z Z A ` p p p 2 p 2 # , # 2 i p Z Z A Z d w w z z z z ",
"z z z z z z w w w l B Z Z Z Z Z Z : 2 2 2 J Z Z Z ..Z C 2 p : 2 + 2 o # # Z J J S B Z Z Z z z z z z ",
"z z z z l z h Z Z Z G Z G J Z Z W p 2 < Z C Z Z Z Z [ ^ ^ 2 p p # 2 2 2 2 ( ..Z A S Z Z w z z z z z ",
"z z z z z z z e Z Z Z Z Z Z T [ | u p 2 Z Z Z Z Z Z Z [ [ p 1 # ^ # 2 - 2 ^ / [ Z Z Z z z z l z z Z ",
"z Z Z z z j z n w e Z Z S T ~ [ T } T Z G Z Z J Z Z Z s p 2 # ( Z [ 2 , 2   Z [ # 2 Z z z z m z Z Z ",
"z Z Z Z z z z z z Z Z Z T ^ [ T [ [ B Z Z Z Z Z ^ ^ T T E p p L [ Z [ : #     [   2 Z A z l z h w w ",
"z w d w z z z z Z Z Z T ' [ T  .Z A Z Z N Z Z ! G D # O + E P ^ < Z Z .   % [     Z Z Z Z Z N Z G Z ",
"z f A Z Z S Z Z J Z Y ~ [ T } Z J C Z Z J Z Z [ _ ^ 2 2 2 O # ..# 2 2 2 Z       Z ^ Z Z Z w A Z Z Z ",
"n m Z Z Z w r Z Z T ) [ U [ Z Z S Z Z Z Z Z Z Z [ _ : 2 # 2 # 2 [ X.^   # # O Z Z ] Z Z Z h Z G S 9 ",
"j z Z Z w z z Z T ^ [ T  .A Z Z Z Z Z Z Z G B N p [ ^ 2 # 2 # 2 2 2 2   X   # 2 _ [ Z w v z w w r z ",
"z z w w z z z E ^ [ U | B Z Z Z Z Z Z A Z Z A Z # # [ / $ 2 G Z 2 2   ^       ^ ..Z J Z z z z z z z ",
"n v z n Z Z z _ [ [ [ S Z Z Z Z Z Z Z Z B A 2 # # 2 p ^ w m B J H Z Z   @   _ [ Z G Z Z Z z Z Z z z ",
"z z z z Z Z z Q { } Z S Z Z Z B Z Z A Z Z 2 2 2 ^ p p 4 j Z Z Z Z C C ^ # #   L Z Z Z w w z 9 w z z ",
"z l z z e w z [ T B C C B Z Z B w Z ^ Z # R I # # ^ 2 Z A Z Z J z w e Z     Z Z Z Z Z z B S Z z z z ",
"z l z z z Z Z Z z Z Z Z Z w 6 w z Z Z ^ # L Z J J Z Z Z Z Z J Z Z Z z w O Z V Z Z Z B Z J Z A z z z ",
"z m z z h Z Z Z Z Z Z Z Z Z B Z Z Z 2 ^ # w Z Z Z Z e z v w Z Z Z Z Z Z   Z C Z A Z z Z Z Z w m z z ",
"z z j h z z Z Z S z Z Z Z Z C Z Z 2 p 2 z z C G G J S m z z w w C Z Z w + # Z Z z z z w w w m z z z ",
"z z v z z l 9 w w z w w Z Z Z 8 w p # v z z w d G Z Z z z z z z A Z Z z Z Z A 8 v Z Z J A z j z z z ",
"z c z z z z n Z G J Z z w Z C Z z 1 2 k z m z z w w 8 z z z z z w w w z Z A Z z z z Z Z w z z z z z ",
"z z z z h z z q Z Z r l l J Z J z z z z z z z z z z z z z z z z z z h z t t q z z z q t z z z z z z ",
"z z z z z z m z 6 w x z z w w 6 z z z z z z z z z z z z z z z z z z z z z z z z z z z z z z z z z z ",
"z z z z z z z z z h z z z z z z z z z z z z z z z z z z z z z z z z z h z z z z z z z z z z z z z z ",
"z z z z z z z h z z z m m z z h z z z z z z z z z z z z z z z z z z z z z z z m z z z z z z z m z z ",
"z h z z z z z z z z z z z z z z z z z z z z z z z z z z z z z z z z z z z z z z z z z m z z z z z z ",
"z z z z z z z z z z z z z z z z z z z z z z z z z z z z z z z z z m z z z z z z z z z z z z z z z z ",
"z z z h z z z z z z z m h z z z z z z z z z z z z z z z z z z z z z h z z z z z z z z z z z z z z z ",
"z z z z z z z z v z z z z z z h z z z z z z z z z z z z z z z z z z z z z z z z z z z z z z z z z z ",
"z z z z z z z z z z z z z z z z z z z z z z z z z z z z z z z z z z z z z z z z z z z z z z z z z z ",
"z z z z z z z z z z z z z z z z z z z z z z z z z z z z z z z z z z z z z z z z z z z z z z z z z z "
};
