/* XPM */
static char *_8767_4e9cdf2742e749dc06def1d9afcf83c0ed9e4d5f6d075bb7592f44f0fdcca51d[] = {
/* columns rows colors chars-per-pixel */
"50 50 99 2 ",
"   c black",
".  c #010000",
"X  c #000100",
"o  c #000105",
"O  c #010204",
"+  c #020106",
"@  c #010206",
"#  c #000306",
"$  c #010207",
"%  c #020307",
"&  c #000407",
"*  c #03060F",
"=  c #040710",
"-  c #050811",
";  c #04151F",
":  c #06141F",
">  c #031320",
",  c #051320",
"<  c #071321",
"1  c #051222",
"2  c #061323",
"3  c #041421",
"4  c #061421",
"5  c #071522",
"6  c #361E2B",
"7  c #371F2C",
"8  c #391D2B",
"9  c #391F2A",
"0  c #381E2B",
"q  c #381D2C",
"w  c #391D2C",
"e  c #391F2C",
"r  c #391E2D",
"t  c #3A1E2C",
"y  c #3A1E2D",
"u  c #182C37",
"i  c #172A38",
"p  c #162C39",
"a  c #182B39",
"s  c #192B39",
"d  c #182B3A",
"f  c #192C3A",
"g  c #192C3B",
"h  c #3A202D",
"j  c #3D2231",
"k  c #3E2230",
"l  c #3E2231",
"z  c #3F2331",
"x  c #3E2332",
"c  c #3F2332",
"v  c #3E2431",
"b  c #3F2433",
"n  c #3F2234",
"m  c #402131",
"M  c #412232",
"N  c #402433",
"B  c #402335",
"V  c #4B2D37",
"C  c #482E37",
"Z  c #492E37",
"A  c #472D38",
"S  c #472D3A",
"D  c #482C38",
"F  c #492D39",
"G  c #4A2C38",
"H  c #4B2D39",
"J  c #482E39",
"K  c #4A2F38",
"L  c #482C3A",
"P  c #492D3B",
"I  c #492F3A",
"U  c #4A2E3A",
"Y  c #4C2E3A",
"T  c #4A2E3C",
"R  c #542B89",
"E  c #562A8B",
"W  c #9E4FF6",
"Q  c #9F51F5",
"!  c #9F50F7",
"~  c #9F50F9",
"^  c #A150F7",
"/  c #A051FA",
"(  c #A250FA",
")  c #DD8AF6",
"_  c #DD8BF7",
"`  c #DD8CF5",
"'  c #DD8BF9",
"]  c #DE8CF8",
"[  c #F8CFF7",
"{  c #F9CFF7",
"}  c #F8CFF9",
"|  c #F6D0F5",
" . c #F6D0F7",
".. c #F9D0F8",
"X. c #F7F7F5",
"o. c gray97",
"O. c #F6F8F7",
"+. c #F7F7F9",
"@. c #F8F8F8",
/* pixels */
"c c c c c c c c c c c c c c c c c c c c c c c c z c c N c N n c z c c c c c c c c c c c c c c c c c ",
"c c c c c c c c c c c c c c l c c c c c c c c c c c c c c c c c c c c c c c c c c c c c c c c c c c ",
"c c c c c c c c c c N c c c c c c c c N N c c c c c c c c c c c c c c l c c c c c c c c c c c c c c ",
"c c c c c c c c c c c c c c c c c c c c c c c c N c c c c c c c c c c c c c c c c c c c c c c c c c ",
"c c c c c c c c c l c c c c c c c c c c c c c c c c c c c c c c N c c c c c c k c c c c c c c c c c ",
"c c c c c c c c c c c c c c c N c c c c c c c c N c c c c n c c c c c c F F c c c c c c c c c c c c ",
"c c c c c c c c c c c c c k P F c c c c c c c c n c c c c c T F F F N c F F F z c c c c c c c c c c ",
"c c c c c c c c l c c c z P F Z c c F F F F c c c c c c c c F F F Z c c 8 t t l c c c c c c c c c c ",
"c c N c c c c c M c c c c e e e M c H Z F F c c l c F F F c y F F e M F U F c c F F M c c c n c c c ",
"N c c c c c N c c c F F c c F F F c e F F e x F Z F F F D c x e 7 c c F H F H c F F c c c c n c c c ",
"c c c c c c c c c l F D c D H U F e c e e c c F F J e e e c F F F M c e F P J m e e c F F F c x c c ",
"c c c c c z F F F h e e c F F F 6 c l F F F z e e 0 c c c F F F Z F z c 0 e t c c c F F F 7 c c c c ",
"c c N c c c t F F F e c c e e e c c F F P F J e l c F F F F F U F # c F F F @ F H V e e e c B c c c ",
"c c c l c c c r e e F F F Z F Z F l F F Z F F e H F L F F F F F e 4 4 2 F F @ 4 F P F F c F F c c c ",
"c c c c c F F x F F F F F F U F F c e e F F F U P F Z F F F F F F F d , 3 F F * > F H F n 0 e c c c ",
"c z l n c e e c Z F F F F F F H H F J F F F F F Z F F F Z F F F F F Z a 4 F F - 4 P F F M c c c c c ",
"c c c c c N c l F Z q F F F F F F D F F J F F F P F F F F Z F Z F Z F g 4 F 4 = 4 U F F F c F F c c ",
"c c c c D F c F F F e F F F F F P F F F H F D F F 4 4 , 4 2 p a 3 F F 3 4 a 4 4 F F Z e 7 c e 7 c c ",
"c c c c e e N 7 e e F F F F F F F F F D I D 4 3 4 a 3 a f i 4 a a 4 @ 4 4 a a 2 F F F c Z F F c F F ",
"c P H U c F U F M F D A F F F F F F F D 4 4 4 a 4 a o.: 4 4 a 4 d a @ 4 4 ! a ! F F Z F F F F c F F ",
"c e F F c H F F Z F H F F 0 e e c F F 2 4 a a 4 4 o.< a a a 4 a 4 4 @ 4 4 a f 4 F U c F F F e N e e ",
"c c e e c 9 I F D c F F F n c c F H a 4 a , 4 F D H F a o.p 4 a 4 @ 4 @ 4 a a P F H F h e e c c c c ",
"c c c c c c e e e x Z F F F F F F , 4 4 4 U F F P F J F 4 f 4 4 @.4 @ # @ F F F J Z F F F c c c c c ",
"c c c c x c l F F F P F P U F F / a 4 2 F D F F F F F a u 4 a o.+ o.4 4 4 F F o.H J F F e c c c c c ",
"c c c c c c c r F F F F F F ! [ { a p 3 F F F F F X.F 4 4 s 5 @ o.$ +.2 2   F o.@ 4 F c c c c c c F ",
"c F F c c z c M e r F F J ! ) [ ! } ! F F F Z o.F F F a a 4 @ o.F U 2 4 @   o.@   4 D c c c n c F F ",
"c F F F c c c c c F F F ! _ [ ! [ ..F F D F J F o.J ! ! ! i a O.F F F @   + @     X.F A c c c c e e ",
"c e h e c c c c F F F ! ] [ !  .F F G F U Z F F F o.@ @ @ Q E @ 2 F U F F @ @   F F F Z F F F F P F ",
"c j H F F J F F U F Q ) [ ! } F F J Z F C F F F F a o.4 4 @ @ @ @ 4 4 @ + F F F o.Z H P F e F F F F ",
"M N F F F e t F F ! ` [ W [ F F F F Z F F U F F f f 2 1 @ 4 @ ; < 4 4 o.% @ @ F F F F F F c F F J 0 ",
"z c F F e c c F ! _ [ !  .H F F F Z F F F F F F a @ 4 4 @ 4 @ 3 4 4 3       o.4 F F F e c c 0 h t c ",
"c c e e c c c ^ _ [ W | Z F F F H F F F F F F F @ @ 4 @ @ 4 F F 4 4   o.X     @ U H F F c c c c c c ",
"M n c M F F c ' [ [ [ J F F F F F F o.F F Y 4 @ & X.s d e c F F F F P   O   R ^ F P F F F c F F c c ",
"c c c c F F c ( { } F J F F F Z F F F o.F , 4 4 @ a a 4 c F F D F F H @ $ @   R F F F e e c 0 e c c ",
"c x c c r e c [ ! Z D D Z F F Z r F F F @ ~ R @ @ 4 2 F F F F F c e 9 F   . F F F F F c Z J F c c c ",
"c x c c c F F F c F F F F e 7 e c H F o @ R F U F F F K F F F D F F l e @ F F U F F Z F U F H c c c ",
"c N c c l F F F F F F F F F Z F F D 4 4 @ e F F F F e c c e F F F F F F   U J F H F c F F F e N c c ",
"c c z l c c F F J c F F F F D F F 4 a 4 c x F F F F F c c c e e J F H 7 @ @ U F c c c e e e N c c c ",
"c c n c c x 0 e e c e e F F F 9 e d $ c n c e e F F F x c c c c F F F c F F F e n F F U H c z c c c ",
"c b c c c c M F P U F c e F D F z 4 4 c x c z c e r e c c c c c e 0 e c S F F M c c F F e c c c c c ",
"c c c c l c c w F F t x x U F U c c c c c c c c c c c c c c c c c c l c y y w c c c w y c c c c c c ",
"c c c c c c N c 7 e v c c e e 7 c c c c c c c c c c c c c c c c c c c c c c c c c c c c c c c c c c ",
"c c c c c c c c c l c c c c c c c c c c c c c c c c c c c c c c c c c l c c c c c c c c c c c c c c ",
"c c c c c c c l c c c N N c c l c c c c c c c c c c c c c c c c c c c c c c c N c c c c c c c N c c ",
"c l c c c c c c c c c c c c c c c c c c c c c c c c c c c c c c c c c c c c c c c c c N c c c c c c ",
"c c c c c c c c c c c c c c c c c c c c c c c c c c c c c c c c c N c c c c c c c c c c c c c c c c ",
"c c c l c c c c c c c N l c c c c c c c c c c c c c c c c c c c c c l c c c c c c c c c c c c c c c ",
"c c c c c c c c n c c c c c c l c c c c c c c c c c c c c c c c c c c c c c c c c c c c c c c c c c ",
"c c c c c c c c c c c c c c c c c c c c c c c c c c c c c c c c c c c c c c c c c c c c c c c c c c ",
"c c c c c c c c c c c c c c c c c c c c c c c c c c c c c c c c c c c c c c c c c c c c c c c c c c "
};
