/* XPM */
static char *_943_0b6d7d069f1ac3338e9885a9dd745cca76a8280978aca14a5d6d2a8540b5d37d[] = {
/* columns rows colors chars-per-pixel */
"50 50 44 1 ",
"  c #361E2B",
". c #371F2C",
"X c #391D29",
"o c #391D2B",
"O c #391F2A",
"+ c #381E2B",
"@ c #3A1E2A",
"# c #381D2C",
"$ c #391D2C",
"% c #391F2C",
"& c #391E2D",
"* c #3A1E2C",
"= c #3A1E2D",
"- c #3A202D",
"; c #3F232F",
": c #3E2230",
"> c #3E2231",
", c #3F2331",
"< c #3E2133",
"1 c #3E2332",
"2 c #3F2332",
"3 c #3E2431",
"4 c #3F2433",
"5 c #3F2234",
"6 c #3E2334",
"7 c #402131",
"8 c #412232",
"9 c #402433",
"0 c #402335",
"q c #482D36",
"w c #492E37",
"e c #472D38",
"r c #482C38",
"t c #492D39",
"y c #4B2D39",
"u c #482E39",
"i c #4A2F38",
"p c #482C3A",
"a c #492D3B",
"s c #4B2C3B",
"d c #492F3A",
"f c #482E3B",
"g c #4A2E3A",
"h c #4A2E3C",
/* pixels */
"222222222222222222222222,2292952,22222222222222222",
"22222222222222>22222222222222222222222222222222222",
"22222222229222222229922222222222222>22222222222222",
"22222222222222222222222292222222222222222222222222",
"222222222>22222222222222222222229222222:2222222222",
"222222222222222922222222922225222222tt222222222222",
"2222222222222:at22222222522222httt92ttt,2222222222",
"22222222>222,atw22tttt22222222tttw22o**>2222222222",
"2292222282222%%%82ywtt22>2ttt2=tt*5ttt22tt22225,22",
"9222229222tt22ttt2%tt%1twtttr21%%2,tttt2tt22579222",
"222222222>tr2rygt%2%%22ttu%%%2ttt22+gtt2%%2ttt2422",
"22222,ttt-%%2ttt 2>ttt,%%+222tttty22%%%222ttt%2222",
"229222*ttt%22%%%22ttatu%>2tttttgtt2ytttftt%%+02222",
"222>222&%%tttwtwt>ttwtt%ytpttttt%&5twtttratt5tt222",
"22222tt1ttttttgtt2%%tttgatwtttttatttutttttyt2%+122",
"2,>52%%2wttttttyytutttttwtttwtttrtttttrytttt282222",
"2222292>tw#ttttttwttttrttttttwttgttttrttttrtt2tg22",
"2222rt2ttt%ttttttttttttttt+%%1ttttttttttttt&%2%%22",
"2222%%9.%%ttttttttrtra2=%%522ttutttttttttrt2tut2tt",
"2ayg2tgt8trettttttttttg222ttttatttt;ttttttttwty2tt",
"2%tt2yttwtytt+%%2tttttttttrtrtttttttttttyt2wtt%2%%",
"22%%2Odtr2ttt522ttqwttttttttttttrtttttttttt%%%5222",
"222222%%%1wtttttttttttatwtttgttttttttttrtrtty22222",
"222212>tttatagttgttttttgtwttttttttttttrtttrt%22222",
"22,222>%wtttttttttttttttttttttttttttttttttt22,222t",
"2tt29222%+tgttttttttttttttttttttttttttttttt2<22:tt",
"2tga22222atttttttttttttttttttttttttttttttttt2252%%",
"2%%@2222arttttttttttttttttttttttgrttttttgrtittttat",
"22tgyyttutttttttttttttttttttttttttttttrtgtrtt*tttt",
"2>ttt%%dttttttttttttttttttttttttttttttttttttt2ttu+",
"2>gt%22tttttttttttttttttttttttttttttttttttu%25*%*2",
"29%%2825*tttttttttttttttttttttttttgtttX@tatt222>22",
"2222at25ttttgttttgtttt2ttt+%O6tttttrtttgtattt2tt22",
">222it2wyutwtttattttgwt2&%222ttsttgttyttttt%%2+%22",
"25>2%%1%%gtrtttt*rgttatt82tttatt1%%ttgttttt2wut222",
"22222itt5ttta%%%2wttgttttttttatwtt2%2tttttwtgty222",
"22222tttttwttttutttO%*tttt%92%ttttttttttyt2ttt%922",
"222222ttt>gtttttttw252ttrtt222%&ggt%%tyt222%%%9222",
"222124-%%0%%ttt%%%%221%%ttw22>22trt2atu%5ttgy2,222",
"2222222tttt2%utt22222222%%%22222%%%2ttt222tt%22222",
"2222>22$tt*11gtg222222222222222222>2==$222$=222222",
"22222292.%322%%.2222222222222222222222222222222222",
"222222222>2222222222222222222222222>22222222222222",
"2222222>2229922>2222222222222222222222292222222922",
"2>222222222222222222222222222222222222222229222222",
"22222222222222222222222222222222292222222222222222",
"222>22222229>222222222222222222222>222222222222222",
"222222225222222>2222222222222222222222222222222222",
"22222222222222222222222222222222222222222222222222",
"22222222222222222222222222222222222222222222222222"
};
