/* XPM */
static char *_f677f1bf66e4fafaa2ec76855751620GKoceiNWTdCQaQO6[] = {
/* columns rows colors chars-per-pixel */
"50 50 122 2 ",
"   c #0D0E2E",
".  c #0F102F",
"X  c #0E0E30",
"o  c #100F33",
"O  c #0E1134",
"+  c #111134",
"@  c #14133B",
"#  c #18163B",
"$  c #19193D",
"%  c #371F2C",
"&  c #391F2C",
"*  c #39202E",
"=  c #3F2332",
"-  c #3E2538",
";  c #402333",
":  c #472D36",
">  c #492E37",
",  c #402538",
"<  c #462E39",
"1  c #492D39",
"2  c #171642",
"3  c #181743",
"4  c #1B1B42",
"5  c #221F47",
"6  c #201F49",
"7  c #1F214A",
"8  c #212146",
"9  c #23224B",
"0  c #2A274F",
"q  c #262553",
"w  c #292753",
"e  c #2B2954",
"r  c #2E2C5B",
"t  c #2D2B5C",
"y  c #2D2B5D",
"u  c #2C2D5D",
"i  c #2F2D5C",
"p  c #2E2C5D",
"a  c #2F2D5E",
"s  c #2F2D5F",
"d  c #2D2E5E",
"f  c #2D2B5B",
"g  c #302A56",
"h  c #322C58",
"j  c #332D59",
"k  c #342F58",
"l  c #352F5B",
"z  c #312E5D",
"x  c #302E5F",
"c  c #312E5B",
"v  c #32305F",
"b  c #36355F",
"n  c #34315D",
"m  c #302E60",
"M  c #312F60",
"N  c #322F61",
"B  c #323061",
"V  c #333162",
"C  c #323363",
"Z  c #343261",
"A  c #353362",
"S  c #343263",
"D  c #363463",
"F  c #333365",
"G  c #353364",
"H  c #363264",
"J  c #373365",
"K  c #363465",
"L  c #343466",
"P  c #353567",
"I  c #373566",
"U  c #353666",
"Y  c #353363",
"T  c #393361",
"R  c #3C3662",
"E  c #3D3763",
"W  c #383667",
"Q  c #3C3664",
"!  c #393664",
"~  c #3B3863",
"^  c #3D3861",
"/  c #3D3B63",
"(  c #3E3864",
")  c #3F3965",
"_  c #3D3A65",
"`  c #3E3866",
"'  c #3F3967",
"]  c #3D3A67",
"[  c #3E3B66",
"{  c #3D3C66",
"}  c #3E3A64",
"|  c #363668",
" . c #373769",
".. c #373769",
"X. c #393768",
"o. c #3B3769",
"O. c #373868",
"+. c #363869",
"@. c #37396A",
"#. c #3A3869",
"$. c #38386A",
"%. c #39396B",
"&. c #3E3B68",
"*. c #3E3C6B",
"=. c #39396D",
"-. c #3A3A6C",
";. c #3C3A6C",
":. c #3B3D6E",
">. c #3E3C6D",
",. c #3C3C6E",
"<. c #3D3D6F",
"1. c #3F3D6E",
"2. c #39386B",
"3. c #3E3E70",
"4. c #3E3E72",
"5. c #403A66",
"6. c #423B67",
"7. c #403A68",
"8. c #413B69",
"9. c #423A69",
"0. c #413B6B",
"q. c #403A68",
/* pixels */
"= = = = = = = = = = = = = = ; ; ; ; ; ; ; ; ; = = ; = = = ; = = = = = = = = = = = = = = = = = = = = ",
"= = = = = = ; = = ; = = = = * ; ; * = ; ; * = = = = = = = = = = = = = = = = = = = = = = = = = = = = ",
"= = = = ; ; = = = = ; = = * ; ; = ; * ; ; ; ; * = = = = = = = = = = = = = = = = = = = = = = = = = = ",
"= = = ; ; ; * = = = = = = ; ; ; = ; ; ; ; ; ; = ; = = ; = = ; = = = = = = = = = = = = = = = = = = = ",
"* ; ; ; = ; * ; = & ; = = = ; ; ; * ; = ; * = = ; ; * ; ; = = = = = = = = = = & = = = = = = = = = = ",
"; ; ; * = = ; ; = = ; ; = = = ; ; ; ; ; ; ; = = ; ; ; ; = = = = = = = = 1 1 = = = = = = = = = = = = ",
"; ; ; ; ; ; ; * = = ; ; = & 1 1 ; ; ; ; ; ; ; = = = ; ; ; ; > > 1 1 ; = 1 1 1 = = = = = = = = = ; = ",
"= ; ; ; * ; ; ; = = = ; ; 1 1 : ; * < > > < ; = = ; * ; ; ; < < 1 1 = = & & & = = = = = = = = = = = ",
"= ; ; ; ; * ; ; ; = = = ; & & & ; ; 1 > 1 1 = = * ; > < 1 ; * 1 1 & ; 1 1 1 = = 1 1 = = = = = ; = ; ",
"; * ; ; = = ; ; ; = < > ; ; 1 1 : ; & 1 1 & = 1 > < 1 > 1 ; = * & ; = 1 1 1 1 = 1 1 = = = = ; = = = ",
"= = ; ; = = ; ; ; ; 1 1 ; : 1 1 1 & = & & = = 1 > < * * & ; 1 1 1 ; = % 1 1 1 = & & = 1 1 1 = ; = = ",
"= = = = = = > > > * * * ; 1 > : % ; ; 1 M Z W 3.3.4.1.1.J Z z 1 1 : ; = & & & = = = 1 1 : & = = = = ",
"= = ; = = = * > 1 1 & ; ; & & & ; p z p O.O.1.Z G v p Z Z X.X.z z p ; 1 1 1 : 1 1 1 & & & = = = = = ",
"= = ; ; = = ; * & * 1 1 > > 1 > 0 -.2.J w C w 7 + + + 4 9 Z q J -.-.w 1 1 1 1 1 1 1 1 1 = 1 1 = ; = ",
"= = = ; = > > ; > 1 1 1 > 1 1 f o.-.G M # # X   X X   X   # # s | -.X.g 1 1 1 1 1 1 1 1 = % & = = = ",
"; = = * = * * * > 1 1 1 1 1 w ;.X.G 9 4 .   X o + + X X     O 4 q J X.;.w 1 1 1 , 1 1 1 = = = ; = = ",
"; = ; = = ; = = 1 1 & 1 1 Z G B t # X   + + + + + @ + + + + X   X $ f F G D 1 1 1 1 : 1 1 = 1 1 = = ",
"= = = = 1 1 = 1 1 1 % 1 1 1.2.B 4   o O + + + + + X + X + o X X     4 G | *.q 1 1 1 1 & & ; & & = = ",
"= = = ; & & ; & & % > 1 -.1.G 9   o + + X + + o + + o   + X + + + X X 9 | 1.-.5 1 1 1 = 1 1 1 = > > ",
"= 1 1 1 = 1 1 1 ; 1 < ( | O.e + X X o o + o + + O o + o o + + X o X O + r O.| ) 1 1 1 1 : 1 : = < < ",
"= & 1 1 = 1 1 1 1 1 1 0.| G e O + @ + + + + + @ X o @ o + @ @ @ @ @ + X w F z R 1 1 = : 1 1 & = * * ",
"= = & & = & 1 1 1 ; : 5.J M q X @ + + + + + + o X o o + + + + + + + + X 9 e w n 1 1 : % & % = = ; ; ",
"= = = = = = & & & = 1 h M p 4 o @ + + + 3 3 @ @ + @ @ @ @ 3 2 2 2 @ 3 o 4 t p j 1 1 1 1 1 = = = * ; ",
"= = = = = = = 1 1 1 1 5.$.J 9 X @ 2 2 @ 3 2 + 2 @ + @ 2 @ 2 2 @ 3 2 + X 9 G X.5.1 1 1 1 & = = = ; ; ",
"= = ; = = = = & < 1 1 ) | G w X + + + + O + @ o + + O o + o O + o O     0 W X.0.1 1 1 ; ; ; = = ; > ",
"= > : ; ; = = ; & % 1 0.-.G 6 o @ @ 2 + 2 2 + + O @ + + + X + + o + @ o 9 G W b 1 1 1 ; = & = = > 1 ",
"= 1 1 1 ; * = * = 1 1 Q ;.G 9 o o O O o + + O X X + o o o o + o o o + X 4 F J e : 1 1 : ; = = = * & ",
"= & & & ; ; ; ; 1 1 1 h M t 9 X + @ @ @ + @ o X o + @ 3 3 3 @ 2 2 2 3 + 9 e q e 1 1 1 1 1 1 1 1 1 1 ",
"= ; 1 1 1 1 1 1 < 1 1 ) X.F 9 X @ @ @ @ @ + + X @ + @ @ @ 2 @ @ 2 @ O X 9 B 2.R 1 1 1 1 1 & 1 1 1 1 ",
"; = 1 : 1 & & 1 1 1 1 0.X.M 9 X + @ + + 2 2 + @ + + + # + + + @ + 2 2 X 9 z O.0.1 1 1 1 1 = 1 1 1 & ",
"= = 1 > & ; ; 1 1 1 > { G G q X 2 2 2 2 3 3 @ 2 @ @ @ 3 + @ + + 3 3 @ X q G | 5.1 1 1 & = = & & & = ",
"= = & & ; ; ; ; & 1 1 { B f 4   o X o X + + o + + + + + + + + + + + O O 9 G J e 1 1 1 1 = = = = = = ",
"= = = = 1 1 = = 1 1 1 0.J f 6 X X o o @ 3 @ @ @ 2 3 3 2 @ @ @ X + + @ o 7 J M e : 1 1 1 1 ; : 1 ; ; ",
"= = = = > 1 = > 1 < > R J p 4 X X X + + @ @ + + + @ @ + @ @ @ X X + + X 7 t p 0 1 1 : & & ; & & ; ; ",
"= = * ; & & = & & 1 1 j p q 9 o @ @ @ + 3 2 o @ + O X @ + + o 2 @ 2 2 o 9 t p h 1 1 1 ; 1 > 1 ; ; * ",
"= = ; ; = > 1 1 ; 1 1 0.O.B 9   @ @ 2 @ 2 2 + 2 + X X X @ @ 2 2 2 2 + o f O.O.0.1 1 1 1 1 1 1 ; ; ; ",
"= = = = = 1 1 1 1 1 > 0.| t e X + + O o X X + + + + + + o X o   X o O X f | O.) 1 > ; 1 1 1 & ; ; ; ",
"= = = = = = 1 1 1 = 1 5.O.F f + 2 3 2 2 X 2 2 @ 3 3 3 + + @ @ o o + @ X e | 2.0.; ; ; * & & ; ; * = ",
"= = = = = = & & * = * ) O.G e X O + @ + o + + + + + + X X O + o o X + X u F P ~ ; 1 1 1 > ; ; ; = = ",
"= ; = = = = ; 1 1 > 1 D s s f X 2 @ @ + # @ @ + + + o X + X o @ # @ 3 o w C s Z ; ; 1 1 & ; ; * = = ",
"; ; ; ; * = = & 1 1 * h p p 7 X @ @ @ @ @ @ + + + + + + + + + 3 @ @ + + 4 p p h = = & * = = = = ; = ",
"; * ; ; ; = ; ; % & = { 1.C 9 X + + + @ @ + @ + + + + + + + + + o + o X 9 F 1.) = = = = = = = = = = ",
"; = * ; ; ; ; ; = = = ) O.B 6 o 2 2 2 @ 3 @ 2 + 3 3 @ @ 3 2 @ @ 2 + + o 9 F O.*.= = = = = = = = = = ",
"* = = = = ; ; * = = = { | | q   + + + O + + X O o o o + + o + + + + +   q | | ) = = = = ; = = ; = = ",
"; * ; ; = = = = = ; ; ~ | B 9 X @ @ 3 2 3 3 @ 2 + @ @ 3 3 + @ 3 3 3 3 + 4 X.$.~ = = = = = = = = = = ",
"; ; ; ; = = = = = = = g t w 9 X + @ # + + @ + + o + + + + O + + + + o X 5 M t B = = = = = = = = = = ",
"; ; ; ; = = = = = = = 0 f e q 9 5 @ 4 9 9 9 9 9 4 o 3 4 8 9 8 9 9 4 3 9 w t f e = = = = = = = = = = ",
"* ; ; * = = = = = ; = W | 2.J B 2.q M B p M G p B q f Z p d h p z f t O.z W -.) = = = = = = = = = ; ",
"; ; ; ; ; = = = ; ; ; b c w 0 w b q f f 9 9 0 0 p w p { w 9 9 w h 0 q e w w D ( = = = = = = = = = = ",
"; ; * ; ; = = = ; * = = - = = - - - = - = = = - - = - - = - - - - = = - = - ; ; = = = ; = = = = = = "
};
