/* XPM */
static char *_0371064eeff40ddd66e494860e9f4a7r4PiCOiFhNYnVjWt[] = {
/* columns rows colors chars-per-pixel */
"50 50 154 2 ",
"   c #1B0D04",
".  c #361108",
"X  c #351715",
"o  c #341A1D",
"O  c #222419",
"+  c #233C1A",
"@  c #383F1E",
"#  c #321823",
"$  c #371F2B",
"%  c #391F2C",
"&  c #1B3D22",
"*  c #2F2526",
"=  c #2C2E21",
"-  c #352228",
";  c #3C232B",
":  c #362A2B",
">  c #39292D",
",  c #382627",
"<  c #273221",
"1  c #303227",
"2  c #3F2332",
"3  c #3A2E30",
"4  c #323F31",
"5  c #41150C",
"6  c #4A1A0E",
"7  c #441E1E",
"8  c #491E18",
"9  c #46201B",
"0  c #4E2E1F",
"q  c #4C211A",
"w  c #5A2215",
"e  c #572316",
"r  c #45331D",
"t  c #602517",
"y  c #612518",
"u  c #42292C",
"i  c #4C312A",
"p  c #57372A",
"a  c #402433",
"s  c #462B36",
"d  c #492E37",
"f  c #472C38",
"g  c #492D39",
"h  c #453832",
"j  c #493939",
"k  c #194F12",
"l  c #195412",
"z  c #1D5C15",
"x  c #24421D",
"c  c #2A461F",
"v  c #1E6316",
"b  c #1E6018",
"n  c #1E6C18",
"m  c #256C1C",
"M  c #3D6E1F",
"N  c #2B771F",
"B  c #29791E",
"V  c #25751C",
"C  c #2A4620",
"Z  c #2A4E20",
"A  c #324432",
"S  c #304C35",
"D  c #345D3B",
"F  c #277A20",
"G  c #297920",
"H  c #307C24",
"J  c #36643F",
"K  c #36693F",
"L  c #76451C",
"P  c #75481E",
"I  c #78441C",
"U  c #68531E",
"Y  c #404726",
"T  c #414728",
"R  c #424E2B",
"E  c #44502C",
"W  c #5A5223",
"Q  c #4B5D37",
"!  c #68422D",
"~  c #7E4D22",
"^  c #6C5722",
"/  c #644E39",
"(  c #53602A",
")  c #477426",
"_  c #466136",
"`  c #6A6C3D",
"'  c #376A41",
"]  c #3A6B42",
"[  c #3F7449",
"{  c #5B4F53",
"}  c #584A4A",
"|  c #674D40",
" . c #74594E",
".. c #44794C",
"X. c #477F52",
"o. c #5C7852",
"O. c #6E6363",
"+. c #716567",
"@. c #824D21",
"#. c #8E592D",
"$. c #925E2F",
"%. c #935F30",
"&. c #9D6331",
"*. c #A96C36",
"=. c #A16531",
"-. c #8D705E",
";. c #876F65",
":. c #508A5A",
">. c #7C8B54",
",. c #598E60",
"<. c #5A9666",
"1. c #5D9966",
"2. c #738B67",
"3. c #6F9973",
"4. c #739678",
"5. c #8A931E",
"6. c #909C1C",
"7. c #918D5E",
"8. c #AA8362",
"9. c #B38764",
"0. c #A68A7C",
"q. c #AD9179",
"w. c #BF9879",
"e. c #B2BB60",
"r. c #B0A07E",
"t. c #878181",
"y. c #BFA58E",
"u. c #BDB09F",
"i. c #AFB6A6",
"p. c #B6B4A7",
"a. c #BAB6AA",
"s. c #BDB8AD",
"d. c #C7A081",
"f. c #C9A283",
"g. c #D1AD8D",
"h. c #DAB698",
"j. c #E5B48C",
"k. c #C0B0A0",
"l. c #CAC8BC",
"z. c #E4C2A4",
"x. c #E6C4A9",
"c. c #F0CEB2",
"v. c #F3D1B5",
"b. c #CECCC1",
"n. c #C8D9C6",
"m. c #F6DDC7",
"M. c #E4DFD9",
"N. c #E7D7C7",
"B. c #E5E2DB",
"V. c #EAE0D4",
"C. c #EAE7E0",
"Z. c #ECE9E2",
"A. c #F5F3ED",
"S. c #F8F7F2",
/* pixels */
"2 2 2 2 2 2 2 2 2 2 2 2 2 2 2 2 2 2 2 2 2 a 2 2 2 a 2 2 2 a 2 2 2 2 2 2 2 2 2 2 2 2 2 2 2 2 2 2 2 2 ",
"2 2 2 2 a 2 2 2 a 2 2 2 2 2 2 2 2 2 2 2 2 2 2 2 2 2 2 2 2 2 2 2 2 2 2 2 2 2 2 2 2 2 2 2 2 2 2 2 2 2 ",
"2 2 2 2 2 2 2 2 2 2 a 2 2 2 2 2 2 2 2 a a 2 2 2 2 2 2 2 2 2 2 2 2 2 2 2 2 2 2 2 2 2 2 2 2 2 2 2 2 2 ",
"2 2 2 2 2 2 2 2 2 2 2 2 2 2 2 a 2 2 2 2 2 2 2 2 a 2 2 2 2 2 a 2 2 2 2 2 2 2 2 2 2 2 2 2 a 2 2 2 2 2 ",
"2 2 2 2 2 2 2 2 2 ; a 2 a a a a 2 2 2 2 2 2 2 2 2 2 2 2 2 a 2 2 2 2 2 2 2 2 2 2 2 2 2 2 2 2 2 2 2 2 ",
"2 2 2 2 2 2 2 a 2 2 2 2 a ; a a 2 2 2 2 2 2 2 2 a 2 2 2 2 2 2 2 2 2 2 2 g g 2 2 2 2 2 2 2 2 2 2 a 2 ",
"a 2 2 2 2 2 2 2 2 2 a a a % g g 2 2 a 2 2 2 2 2 2 2 2 2 2 2 g g g g 2 2 g g g 2 2 2 2 2 2 2 2 2 2 2 ",
"2 2 2 2 2 2 2 2 2 2 2 a a g g g 2 2 g g g g 2 2 2 2 a 2 2 2 g g g d 2 2 % % $ 2 2 2 2 2 2 2 2 2 2 2 ",
"2 2 a 2 2 2 2 2 2 2 2 2 a $ $ % a a g g g g 2 2 2 2 g g g 2 % g g $ 2 g g g 2 2 g g 2 2 2 2 2 2 2 2 ",
"a 2 2 2 2 2 a a 2 2 g g a a g g g a % g g % 2 g g g g g g 2 2 % % 2 2 g g g g 2 g g 2 2 2 2 2 2 2 2 ",
"a 2 a 2 2 2 2 2 2 2 g g a g g g g $ 2 % % 2 2 g g g ; % % 2 g g g 2 $ $ g g g 2 % % 2 g g g 2 2 2 2 ",
"2 2 2 2 2 2 g g g ; % % a g g g $ a 2 g f g 2 % $ $ 2 2 2 g g g g g 8 2 % % % 2 2 2 g g g % 2 2 2 2 ",
"2 2 a 2 2 2 % g g g % 2 2 $ ; % a % g g g g g 2 2 2 g g g C.M.M.g g 7 g g g g g g g % % % 2 2 2 2 2 ",
"2 2 2 2 2 2 2 % % % g g g d g g d 2 g g g g g t.s.f O.g C.A.a.M.k.$ y ; s g g g g g g g 2 g g 2 2 2 ",
"2 2 2 a 2 g g 2 g g g g g g g g g a % % g g g } a.B.l.g A.b.N.9.j.B.( w y ; g g g g g g 2 % % 2 2 2 ",
"2 2 ; a 2 % % 2 f g g g g g g g g g g g g g g g | T h +.S.b.M.y.v.B.E ; ; t 8 a g g g g 2 2 2 a 2 2 ",
"a 2 2 2 2 2 2 2 g g $ g g g g g d g g g g g g g 5.6.e.l.k.s.p.z.c.a.Y g g t t ; d g d g g a d g 2 2 ",
"a a 2 2 g g 2 g g g % g g g g g g g g g g g g g ] v.m.4.] [ k.d.c.p.Y d g t t ; d d g % % a % % 2 2 ",
"2 2 2 a % % a % $ % g g g g g g g g d g g g 2 0.c.z.h.o.] ] p.{ +.a.R g % w t ; g g g 2 g g g 2 g g ",
"2 g g g 2 g g g 2 g g g g g g g g g g g g c 0.v.h.d.y.:.:.:.3.B.d B.E u 5 5 6 ; g g g g g g g a g g ",
"2 % g g 2 g g g d g g g g % % % a d g g m H v.2.] ] 1.1.1.1.1.n.s s A d 5 5 5 - g g 2 d g g % 2 % % ",
"2 2 % $ 2 % g g g 2 g g g a 2 2 g g d C B m g 4 ] ] ..1.<.<.1.3 s s Y d . 5 5 ; g g g % % % 2 2 2 2 ",
"a 2 a a 2 2 % % % 2 d g g g g g g g : V + g g S ' ] ] S 4 A -.g.: : E g . X o f g g g g g 2 2 2 2 2 ",
"2 2 2 2 2 2 2 g g g g g g g g g  ./ >.= g g g A ' ] K > g g s _ m m E g q.;.g g g g s g % 2 2 2 2 2 ",
"2 2 2 2 2 2 % % g g g g g g g g z.8.w.3 d s : K K ' K : f g g f s m ) 7.c.z.g g g g g 2 2 2 2 2 2 g ",
"2 d g 2 a 2 a a % % g g g g g  .s d d s g s K :.1.1.:., g g g f g s h s   s g g g g g 2 2 2 2 2 g g ",
"2 g g g 2 2 a 2 a g g g d g g g s g g g u *.@.Q <.:.1.` ; g g g d d E d 5 5 . f g g g g 2 2 a 2 % % ",
"2 % % % 2 2 2 2 g g g g g g g g g g g p *.*.=._ ..:.:.<.L 0 g g d d E d 5 5 5 ; g g g g f f g g g g ",
"2 a g g g g g g g g g g g d g g g g g ! *.*.I I ] <...<.P $.p g g s T g 5 5 5 $ g g g g g % g g g g ",
"2 2 g g g % % g g g g g g d g g g g u *.*.I I c K ] :.' P $.%.u g s A d g 5 6 ; g g g g g 2 g g g $ ",
"a 2 g g % 2 a g g g d g g g g g g d i =.I P r & ' ] [ [ I I $.$.u d R d g y y % g g g % 2 2 % % % 2 ",
"2 a % % 2 a a a ; g g g g g g g C c ) U ; ; : & ' K ] K ; u M U ~ g R g g t y # g g g g 2 2 2 2 2 2 ",
"2 a a 2 g g a 2 g g g g g g g g s G G B s g 2 g J ' ] ' $ 2 z G G g T g g t t ; g g g g g 2 g g a 2 ",
"% a a 2 g g 2 d g g g g g g g g s l b B g d g 2 D J ' ' % l l m G G T 7 y e g g g g g $ ; 2 % % 2 2 ",
"2 2 % a % % 2 % % g g d g g g g l l x c d g g g a 2 g g l l k + x x W q 7 g g g g g g 2 d f g 2 2 2 ",
"2 a a a 2 g g g 2 g g g g % % O l * g d g g g g g g g g l l ; d g g 8 % 2 g g g g g g g g g g 2 2 2 ",
"2 2 2 2 2 g g g g g d g g g : z l g g % % $ g g g g % a k k g g g s 7 g g g g g g g a g g g % 2 2 2 ",
"2 2 2 2 2 2 g g g 2 g f g g : b s g g 2 a 2 d d d g g x l a $ % g g 7 % $ g g f a 2 2 ; % ; 2 2 2 2 ",
"2 2 2 2 a a % % % a % % g f G z % % % 2 a 2 ; $ g g d < B N - a g g g 2 g g g ; 2 g g g g 2 2 2 2 2 ",
"2 2 2 2 2 2 2 g g g g 2 ; g > > 2 2 a 2 2 2 2 2 % % $ a * * - a % % % 2 g g g a 2 2 g g % 2 2 2 2 2 ",
"2 2 2 2 2 2 2 % g g % 2 2 g g g 2 2 2 2 2 2 2 2 2 2 2 2 2 2 2 2 2 2 2 2 % % % 2 a 2 % % 2 2 2 2 2 2 ",
"2 2 2 2 2 2 2 2 % % 2 2 2 % ; % 2 2 2 2 2 2 2 2 2 2 2 a 2 2 2 2 2 2 2 2 2 2 2 2 2 2 2 2 2 2 2 2 2 a ",
"2 2 2 2 2 2 2 2 2 2 2 2 2 2 2 2 2 2 2 2 2 2 2 2 2 2 2 2 2 2 2 2 2 2 2 2 2 2 2 2 2 2 2 2 2 2 2 2 2 2 ",
"2 2 2 2 2 2 2 2 2 2 2 a 2 2 2 2 a 2 2 2 2 2 2 a 2 2 2 2 2 2 2 2 2 2 2 2 2 2 2 a 2 2 2 2 2 2 2 2 2 2 ",
"2 2 2 2 2 2 2 2 2 2 2 2 2 2 2 2 2 2 2 2 2 2 2 2 2 2 2 2 2 2 2 2 2 2 2 2 2 a a 2 a 2 a a 2 2 2 2 2 2 ",
"2 2 2 2 2 2 2 2 2 2 2 2 2 2 2 2 2 2 2 2 2 2 2 2 2 2 2 2 2 2 2 a 2 a 2 2 2 2 2 2 2 2 2 2 2 2 2 2 2 2 ",
"2 2 2 2 2 2 2 2 2 2 2 2 2 2 2 2 2 2 2 2 2 2 2 2 2 2 2 2 2 2 2 2 2 2 2 2 2 2 2 2 2 2 2 2 2 a 2 2 a 2 ",
"2 2 2 2 2 2 2 2 2 2 2 2 2 2 2 2 2 2 2 2 a 2 2 2 2 2 2 a 2 2 2 2 2 2 2 2 2 2 a 2 2 2 2 2 2 2 2 2 2 2 ",
"2 2 2 2 2 2 2 2 2 2 2 2 2 2 2 2 2 2 2 2 2 2 2 2 2 2 2 2 2 a 2 2 2 2 2 2 2 2 2 2 2 2 a 2 2 2 2 2 2 2 ",
"2 2 2 2 2 2 2 a 2 2 2 2 2 2 2 2 a 2 2 2 2 2 2 2 2 2 2 2 2 2 2 2 2 2 2 2 2 2 2 2 2 2 2 2 2 2 a 2 2 2 "
};
