/* XPM */
static char *_abace19d307415cc7ce10fc35d7803b1STGhzdoYRJK9NuD[] = {
/* columns rows colors chars-per-pixel */
"50 50 240 2 ",
"   c #14070E",
".  c #13080E",
"X  c #130A0F",
"o  c #15080F",
"O  c #14090F",
"+  c #150A10",
"@  c #170A11",
"#  c #160912",
"$  c #180910",
"%  c #190A11",
"&  c #180B12",
"*  c #1A0B12",
"=  c #190C13",
"-  c #1B0C13",
";  c #1E0D13",
":  c #180B14",
">  c #190C15",
",  c #1A0D14",
"<  c #1A0D16",
"1  c #1B0E17",
"2  c #1D0C14",
"3  c #1C0D14",
"4  c #1E0D15",
"5  c #1C0C16",
"6  c #1E0D17",
"7  c #1F0E18",
"8  c #1F1017",
"9  c #200F17",
"0  c #220E17",
"q  c #200F19",
"w  c #220E19",
"e  c #200E1A",
"r  c #201116",
"t  c #211018",
"y  c #201118",
"u  c #221119",
"i  c #211219",
"p  c #20101A",
"a  c #21101A",
"s  c #21111B",
"d  c #22111B",
"f  c #23121A",
"g  c #241319",
"h  c #24101B",
"j  c #24131B",
"k  c #26121B",
"l  c #23141B",
"z  c #22101C",
"x  c #22121C",
"c  c #23121C",
"v  c #25111C",
"b  c #24131D",
"n  c #27131C",
"m  c #26121D",
"M  c #25131F",
"N  c #27131E",
"B  c #25141C",
"V  c #24151C",
"C  c #26151D",
"Z  c #24141E",
"A  c #25141E",
"S  c #27161E",
"D  c #28121E",
"F  c #29131F",
"G  c #28141D",
"H  c #29151E",
"J  c #28141F",
"K  c #291520",
"L  c #291521",
"P  c #2A1420",
"I  c #2A1421",
"U  c #2B1521",
"Y  c #2B1720",
"T  c #2B1522",
"R  c #2B1722",
"E  c #2B1723",
"W  c #2C1421",
"Q  c #2C1720",
"!  c #2C1622",
"~  c #2D1723",
"^  c #2E1623",
"/  c #2F1724",
"(  c #291820",
")  c #2C1821",
"_  c #2C1823",
"`  c #2E1922",
"'  c #2C1B23",
"]  c #2D1924",
"[  c #2E1824",
"{  c #2E1825",
"}  c #2F1925",
"|  c #2E1A25",
" . c #2F1926",
".. c #2F1B26",
"X. c #301923",
"o. c #321823",
"O. c #301825",
"+. c #301B24",
"@. c #321B25",
"#. c #311926",
"$. c #331926",
"%. c #301A26",
"&. c #311B27",
"*. c #321A27",
"=. c #341A27",
"-. c #311C25",
";. c #331C26",
":. c #321D26",
">. c #331E27",
",. c #341D27",
"<. c #331B28",
"1. c #331B29",
"2. c #351B28",
"3. c #351A29",
"4. c #361B2A",
"5. c #321C28",
"6. c #331D29",
"7. c #341C29",
"8. c #361C29",
"9. c #351E28",
"0. c #341F28",
"q. c #361F29",
"w. c #351D2A",
"e. c #351D2B",
"r. c #371D2A",
"t. c #371C2B",
"y. c #351F2B",
"u. c #361E2B",
"i. c #371F2C",
"p. c #371F2D",
"a. c #381E29",
"s. c #391D2B",
"d. c #391F2A",
"f. c #381E2B",
"g. c #3A1E2A",
"h. c #381D2C",
"j. c #391D2C",
"k. c #391F2C",
"l. c #391E2D",
"z. c #3A1E2C",
"x. c #3A1E2D",
"c. c #381D2E",
"v. c #3A1F2E",
"b. c #352029",
"n. c #37202A",
"m. c #3A202B",
"M. c #38202D",
"N. c #3A202D",
"B. c #39222C",
"V. c #38202E",
"C. c #39212E",
"Z. c #3B212E",
"A. c #3B202F",
"S. c #3A222F",
"D. c #3C202C",
"F. c #3D212F",
"G. c #3C222F",
"H. c #3A252C",
"J. c #3B242E",
"K. c #3C272E",
"L. c #3B2330",
"P. c #3C2130",
"I. c #3D2130",
"U. c #3D2231",
"Y. c #3E2230",
"T. c #3E2231",
"R. c #3F2331",
"E. c #3F2032",
"W. c #3E2133",
"Q. c #3E2332",
"!. c #3F2332",
"~. c #3F2530",
"^. c #3E2431",
"/. c #3E2731",
"(. c #3F2433",
"). c #3F2234",
"_. c #3F2832",
"`. c #3E2932",
"'. c #402131",
"]. c #412231",
"[. c #412232",
"{. c #422332",
"}. c #422333",
"|. c #402631",
" X c #402432",
".X c #402433",
"XX c #412533",
"oX c #432433",
"OX c #402633",
"+X c #442433",
"@X c #402335",
"#X c #422335",
"$X c #412534",
"%X c #412734",
"&X c #432735",
"*X c #442534",
"=X c #402933",
"-X c #422833",
";X c #432934",
":X c #422835",
">X c #412A34",
",X c #422B35",
"<X c #452935",
"1X c #462834",
"2X c #442836",
"3X c #452937",
"4X c #442A37",
"5X c #462A36",
"6X c #472B37",
"7X c #472C35",
"8X c #442D37",
"9X c #462C37",
"0X c #482A36",
"qX c #482D36",
"wX c #482E37",
"eX c #492E37",
"rX c #452B38",
"tX c #462A38",
"yX c #472B39",
"uX c #472D38",
"iX c #462C39",
"pX c #472D3A",
"aX c #482C38",
"sX c #492D39",
"dX c #4A2C38",
"fX c #4B2D39",
"gX c #482E39",
"hX c #4A2F38",
"jX c #482C3A",
"kX c #492D3B",
"lX c #492F3A",
"zX c #4A2E3A",
"xX c #4C2E3A",
"cX c #4D2F3B",
"vX c #492F3C",
"bX c #4D323B",
"nX c #4A333D",
"mX c #4D313D",
"MX c #4C323D",
"NX c #4E333C",
/* pixels */
"!.!.!.!.!.!.!.!.!.!.!.!.!.!.!.!.!.!.!.!.!.!.!.!.!.!.!.!.!.!.!.!.[.!.!.(.[.!.!.!.!.!.!.!.!.!.!.!.!.!.",
"!.!.!.!.!.!.!.!.!.!.!.!.!.!.!.!.!.!.!.!.!.!.!.!.!.!.!.!.!.!.!.!.!.!.!.F.!.!.!.!.!.!.!.!.!.!.!.!.!.!.",
"!.!.!.!.!.!.!.!.!.!.!.!.!.!.!.!.!.!.!.!.[.!.!.!.!.!.!.!.!.!.!.!.!.!.!.!.!.[.!.!.!.!.!.!.!.!.!.!.!.!.",
"!.!.!.!.!.!.!.!.!.!.!.!.!.!.!.!.!.!.!.!.!.!.!.[.!.!.!.!.!.!.!.!..XF.!.!.!.!.!.!.!.!.!.!.!.!.!.!.!.!.",
"!.!.!.!.!.!.!.!.!.!.!.!.!.!.!.(.!.!.(.!.!.!..X$X!.!.(.(.!.!.!.[.(.F..X.X!.!.!.!.!.!.!.!.!.!.!.!.!.!.",
"!.!.!.!.!.!.!.!.!.!.!.!.!.!.!.[.!.F.(.7.7.;.7.7.7.7.;.5.<.2.7.l.(..XF..XsXqX!..X!.!.!.!.!.!.!.!.!.!.",
"!.!.!.!.!.!.!.!.!.!.!.!.!.!.vXsX!.[.;.& + & & + + & & & & & o ( 9XsX!.!.sXsXsX!.!.!.!.!.!.!.!.!.!.!.",
"!.!.!.!.!.!.!.!.!.!.!.!.!.sXsXqX!.#.& + +   o . o o . X . o o + j 9X!.(.l.N.f.!.!.!.!.!.!.!.!.!.!.!.",
"!.!..X!.!.!.!.!.[.!.!.!.!.l.l.m. .1 + + g & & d + d 3 > d + e 9 & d N.sXsXsX@X!.sXsX!.!.!.(.[.F.!.!.",
".X!.!.!.!.!..X!.!.!.sXsX!.!.sXsXG   . 7 g d e d e d d e d 9 d d > + f.qXsXsXsX!.sXsX!.!.!.[.$X!.!.!.",
"!.!.[.!.!.!.!.!.!.!.sXqX!.qXxXsXB > B U 6 w d 3 U 6 e g > U e b ` & f.l.sXiXsX!.l.N.!.sXsXsX!.(.!.!.",
"!.!.!.!.!.!.sXsXsXN.l.l..XsXsXsXd ' sX#.W e 6 U ~ ~ r 6 ` ` ` (.2X- l.[.N.l.N.!.!.!.sXsXsXl.!.!.!.!.",
"!.!.!.!.!.!.f.sXsXsXN.!.!.l.l.f.g U tXvXg e z 6 U 7 7 H U ` _.sXl.- l.sXsXsXsXsXsXsXl.N.l.W..X!.!.!.",
"!.!.!.!.!.!.!.l.m.f.sXsXsXqXbXqXB b 2X0XK.`.=XH.2XK.`.2X,X,XiXtX2.$ f.sXsXsXsXsXiXsXsXsX!.sXsX(.!.!.",
"!.!.!.!.!.sXsX!.sXsXsXsXsXsXsXsX,.b #.(.xXmXmXbXnXmXmXnXbXnX2Xl.+.~ <XsXsXsXsXsXsXsXsXsX(.f.7.!.!.!.",
"!.!.!.!.!.l.l.!.qXsXsXsXsXsXsXxXsX#.& l.!.!.[.(.(.(.!.!.!.(.F.U d <XsXsXsXsXxXsXsXsXsXsX[..X.X.X!.!.",
"!.!.!.!.!..X!.!.sXqXl.sXsXsXsXsXsX7.> d p.!.!.!.F.!.!.!.!.W.~   > iXsXsXsXsXsXsXsXsXiXsXsX!.sXsX!.!.",
"!.!.!.!.qXiX!.sXsXsXl.sXsXsXsXsXsXf.6 B G b d b b z b g z g b 6 z sXsXsXsXsXsXsXsXsXsXl.N..Xf.N.!.!.",
"!.!.!.!.l.l.[.M.N.f.sXsXsXsXsXsXsX,.d 7.P d e d d z d d d b =.~ B tXsXsXsXsXsXqXsXsXsX[.sXsXsX!.iXsX",
"!.sXxXsX(.sXsXsX[.sXqX9XsXsXsXsXsXn.d F.2. .` +.#.#.7.#.` #.F.#.B <XsX!.sXsXsXsXsXsXsXsXqXsXsX!.sXsX",
"!.f.sXsX.XqXsXsXsXsXxXsXsXf.l.f..Xb.r !.[.#.#.(.!.!.(.N. .!.!.#.g yXsXsXsXsXsXsXsXsX!.qXsXsXm.!.l.f.",
"!.!.m.l..X7.bXsXsX[.sXsXsX@X(.!.qXb.d '..X7.;.(.!..X[.N.~ F..X/ B 0XsXsXsXsXsXsXsXsXsXm.l.N.W.!.(.!.",
"!.!.!.!.!.!.l.m.l.(.qXsXsXsXsXsXsXn.3 b 2XN.#.(.!.!.@Xf.+.1X5.d b yXsXqXsXsXyXsXsXyXsXsXsX!.!.!.!.!.",
"!.!.!.!.!.!.!.sXsXsXsXsXvXsXsXsXsXf.9 ~ ;.5.F.<X<X<XtX.X7.b.+.d b sXsXsXxXsXsXsXsXsXsXsXm.!.!.!.!..X",
"!.!.!.!.!.!.!.f.qXsXsXsXsXsXsXsXqXn.g F.U  .F..X(.`.`.!.7.j 7.#.b 0XsXsXsXsXqXsXsXsXsX(.!.!.!.!.!.sX",
"!.sXsX.X.X!.!.!.N.l.sXsXsXsXsXsXxX7.d .X!.` 6 r d r r e b m..X#.g 9XsXsXsXsXsXsXsXsXsX[.!.!.!.!.sXsX",
"!.sXsXsX!.!.!.!..XsXsXsXsXsXsXsXsXn.d F.(.#. .f.l.N.f.5.` F.+X#.b 0XsXsXsXsXiXsXsXsXsXsX!.!.W.!.f.N.",
"!.l.N.f.!.!.!.!.sXsXsXsXsXsXsXsXsX7.d !.[.7.<.(.!.[.*XN.O.F..X#.g iXsXsXsXsXsXsXsXsXsXqXsXyXsXsXsXsX",
"!..XsXsXqXxXsXsXsXsXsXsXsXsXsXsXsXb.r [.[.2.<.!.!.!..XM./ N.$XO.j qXsXsXsXsXsXqXsXsXsXsXsXl.sXsXsXsX",
"!.!.sXsXsXl.m.sXsXsXsXsXsXsXsXsXsXm.d !.$X#.#.(.!..X[.N. .!.+X+.j 0X0XsXsXsXsXsXsXsXsXsXsX!.sXsXsXf.",
"!.!.sXsXl.!.!.sXsXsXsXsXsXsXsXsXsXn.j F.(.2.#.!.!.!.[.l.O.K.[./ b yXsXsXsXsXsXsXsXsXsXN.!.!.l.f.l.(.",
"!.!.m.f.(.[..XW.f.sXsXsXsXsXsXsXsX7.6 H 2XN.#.!.!.!.!.l.O.<X#.e B yXsXsXsXsXf.p.sXsXsXsX!.!.[.!.!.!.",
"!.!.!.!.sXsX(.W.sXsXsXsXsXsXqXsXbX7.d ` ;.;.(.iXiXiXiX<XN.;.` b B sXsXiXsXqXsXqXsXvXsXsXsX!.sXsX!.!.",
"!.!.!.!.hXsX!.qXsXsXsXsXsXsXxXxXqX,.d F.H  .n.N.L.N.L.N.=.n f.#.b 0XsXsXsXsXsXsXsXsXsXN.l.(.m.f.!.!.",
"!.!.!.!.m.l.!.N.N.sXsXsXsXsXsXsXf.m.d F..X#.6 7 d d d 7 d D.+XO.d n.m.sXsXsXsXsXsXsXsX[.qXsXsX!.!.!.",
"!.!.!.!..XqXiXsX(.sXsXsXsXN.f.m.[.,.d F..X7.O.F.N.N.F.M.#.F..X .g tX(.l..XsXsXsXsXsXqXsXsXsXsX!.!.!.",
"!.!.!.!.!.tXsXsXsXsXqXsXqXsXsXsXsX7.g !.$X7.7.[.@X[..XN.#.F.+X#.j qXsXsXbXiXsXsXsXsX[.sXsXsXN..X!.!.",
"!.!.!.!.!.!.sXsXsX(.sXsXsXsXsXsXK.H g !.@X#.#.!.[..X.XN./ !.[.#.r f.<Xf.N.sXsXsX[.(.(.N.N.N..X!.!.!.",
"!.!.!.!.!.!.N.l.N.!.m.m.sXsXsX#.e 6 b 2.$X2.#..X(..X!.l. .[.N.~ e 6 .X(.sXsXsXn.!.sXsXsXsX!.!.!.!.!.",
"!.!.!.!.!.!.!.sXsXsXiX(.m.sX0Xe & e ~ d .XN.7..X.X.X.Xl.#.<X` b G e ;.(.sXsXsX.X!.!.sXsXf.!.!.!.!.!.",
"!.!.!.!.!.!.!.f.sXsX7..X.XsX<X` e W l.~ d #.(.sXsXqXxXiXN.H d <.2.e ~ l.l.f.l.!.!.!.l.l.[.!.!.!.!.!.",
"!.!.!.!.!.!.!.!.N.n.!.!.!.f.p./ W G O.l.N.#.U ` ` ( ` ( ~ 7.N.;.U G U p.(.!.!.!.!.!.!.!.!.!.!.!.!.!.",
"!.!.!.!.!.!.!.!.!.!.!.!.!.!.!.7.7.~ b #.M.n.' '  . .'  .<.7.7.H b 2.2.N.!.!.!.!.!.!.!.!.!.!.!.!.!.!.",
"!.!.!.!.!.!.!.!.!.!.!.(.!.!.!.!.!.7.~ l d ;.=X1X=X=X2X_.(.b e U ;.N.!.!..X!.!.!.!.!.!.!.!.!.!.(.!.!.",
"!.!.!.!.!.!.!.!.!.!.!.!.!.!.!.[.2./ #.N.O.G d e d 9 9 9 z U p.!.N./ P.!.!.!.!.!.!.!.!..X!.!.!.!.!.!.",
"!.!.!.!.!.!.!.!.!.!.!.!.!.!.!.!.F.F.l.#.l.l.p.l.7.~ #.f.l.N.#.l.W.!.!.!.!.!.!.!.!.!.!.!.!.!.!.!.!.!.",
"!.!.!.!.!.!.!.!.!.!.!.!.!.!.!.!.!.!.[.7.[.!.!.!.[.F.7.f.!.!.N.N.!.!.!.!.!.!.!.!.!.!.!.!.!.!.!.!.!.!.",
"!.!.!.!.!.!.!.!.@X(.!.!.!.!.!.!..X!.(.!.!.!.!.!.(..Xl.7.(.(.[.W.!.!.!.!.!.!.!.!.!.!.!.!.!.!.!.!.!.!.",
"!.!.!.!.!.!.!.!.!.!.!.!.!.!.!.!.!.!.!.!.!.!.!.!.!.!.!.!.!.!.!.!.!.!.!.!.!.!.!.!.!.!.!.!.!.!.!.!.!.!.",
"!.!.!.!.!.!.!.!.!.!.!.!.!.!.!.!.!.!.!.!.!.!.!.!.!.!.!.!.!.!.!.!.!.!.!.!.!.!.!.!.!.!.!.!.!.!.!.!.!.!."
};
