/* XPM */
static char *_87b2a88052f4c73c9668ddd1fcdd1d17Rs2Ip8XhmApwGgE[] = {
/* columns rows colors chars-per-pixel */
"50 50 166 2 ",
"   c #0D030A",
".  c #0B0205",
"X  c #13060D",
"o  c #1B060C",
"O  c #1C0A0F",
"+  c #170612",
"@  c #1C0614",
"#  c #170A12",
"$  c #1B0C13",
"%  c #1F1017",
"&  c #1C131B",
"*  c #210B15",
"=  c #230E1A",
"-  c #2A0E1C",
";  c #221313",
":  c #22111B",
">  c #2C131A",
",  c #2D181F",
"<  c #2C1317",
"1  c #3F1F10",
"2  c #34131C",
"3  c #351A1C",
"4  c #391A1E",
"5  c #3A111F",
"6  c #2E2015",
"7  c #3A211C",
"8  c #300F20",
"9  c #291521",
"0  c #2D1A23",
"q  c #221625",
"w  c #321122",
"e  c #311A25",
"r  c #361D2A",
"t  c #391F2C",
"y  c #3A1625",
"u  c #1E202C",
"i  c #22212B",
"p  c #2D212B",
"a  c #34212B",
"s  c #3A212D",
"d  c #322225",
"f  c #2A2633",
"g  c #3F2332",
"h  c #352E36",
"j  c #2A323F",
"k  c #4C1B1D",
"l  c #411B17",
"z  c #41220E",
"x  c #462C1F",
"c  c #4E3B1F",
"v  c #4A351A",
"b  c #643614",
"n  c #431524",
"m  c #401C28",
"M  c #4C192C",
"N  c #451729",
"B  c #551F2C",
"V  c #4A2D27",
"C  c #5E2021",
"Z  c #56212B",
"A  c #5A212D",
"S  c #562224",
"D  c #402433",
"F  c #482637",
"G  c #452A36",
"H  c #492E37",
"J  c #462B39",
"K  c #492D39",
"L  c #532C39",
"P  c #5B313E",
"I  c #6B262B",
"U  c #62232B",
"Y  c #652830",
"T  c #632731",
"R  c #732E35",
"E  c #7B3738",
"W  c #7C3839",
"Q  c #53421E",
"!  c #5F4426",
"~  c #6A5925",
"^  c #7A6627",
"/  c #283444",
"(  c #3C3E4B",
")  c #2C3F50",
"_  c #452B41",
"`  c #4A374C",
"'  c #47384F",
"]  c #48374D",
"[  c #503941",
"{  c #583847",
"}  c #473C52",
"|  c #613944",
" . c #334353",
".. c #3D5265",
"X. c #464259",
"o. c #584352",
"O. c #7E4A4E",
"+. c #6E525E",
"@. c #7D5B5A",
"#. c #567847",
"$. c #4C4D63",
"%. c #4F5168",
"&. c #624F62",
"*. c #6F5560",
"=. c #715762",
"-. c #4B6C7F",
";. c #69616C",
":. c #666877",
">. c #833332",
",. c #AA3631",
"<. c #8E5118",
"1. c #92571D",
"2. c #A6661E",
"3. c #A85722",
"4. c #B05328",
"5. c #9D6E2A",
"6. c #8A742E",
"7. c #AE7524",
"8. c #BD7F2C",
"9. c #B96131",
"0. c #B13D40",
"q. c #80575D",
"w. c #B67243",
"e. c #856B74",
"r. c #B8716B",
"t. c #67995C",
"y. c #88833F",
"u. c #948230",
"i. c #99923F",
"p. c #B4872C",
"a. c #AD8C3A",
"s. c #A58032",
"d. c #AF933A",
"f. c #B89A38",
"g. c #B69A3A",
"h. c #C18C2C",
"j. c #C18338",
"k. c #C39F3E",
"l. c #D3973F",
"z. c #CFA93A",
"x. c #D0A233",
"c. c #D6B33D",
"v. c #AE9F4E",
"b. c #B5944D",
"n. c #8CA75A",
"m. c #81AC77",
"M. c #C8A741",
"N. c #CCB941",
"B. c #D0B540",
"V. c #DBBE42",
"C. c #D0BB44",
"Z. c #DDC144",
"A. c #496C83",
"S. c #4E758B",
"D. c #52758A",
"F. c #537D95",
"G. c #607F93",
"H. c #55849B",
"J. c #628195",
"K. c #5786A0",
"L. c #5887A3",
"P. c #578DA7",
"I. c #588EA8",
"U. c #7EA1B5",
"Y. c #84A5B8",
"T. c #AFC280",
/* pixels */
"g g g g g g g g g g g g g g g g g g g g g g g g g g g D g D g g g g g g g g g g g g g g g g g g g g ",
"g g g g g g g g g g g g g g g g g g g g g g g g g g g g g g g g g g g g g g g g g D g g g g g g s D ",
"g g g g g g D g g g g g g g g g g g g D D g g g g g g g g g g g g g g g g g g g g g g g g g g g D g ",
"g g g g g g g g g g g g g g g g g g g g g g D g D g g g g g D g g g g g g g g g g g g g g g g g D D ",
"g g g g g g g g g g g g g g g g g g g g g g g g g g g g g g g g g g g g g g g g g g g g g g g g g g ",
"g D g g g g g g g g g g g g g D g g g g g g g g D g g g g g g g g g g g K K g g g g g g g D g g g g ",
"g g g g g g g g g g g g g g K K g g g g g g g g g g g g g g K K K K D g K K K g g g g g g g g g g g ",
"g g g g g g g g g g g g g K K H g g K K K K g g g g g g g D K K F H g g t t t g g g g g g g g g g g ",
"g g D g g g g g D g g g D t t t g g K H K K g g g g K K K g t K F t g K K K g g K J g g g g g g D g ",
"D g g g g g D g g g K K D D H K F g t F G t g K K K K K K g g t t D g K K K K g K J g g g D D g g g ",
"g g D g g g g g g g K F D F K K K s D t t D g K K J t t t g K K K D D r K K K g t t g K K K g g g g ",
"g g g g g g K K K t t t D K K K s s D K K F D t t t g g g K K K K F D D t t t g D D K K K t g g g g ",
"g g g g g g t K K K t g g t s t D g K K K K K t g g K K K K K K K K D K K K K K K K t t t g g g g g ",
"g g g g g g g t t t K K K H K H K g K K K K K r K K K K K K K K t t D K K K K K K J K K g K K g g g ",
"g g g g g K K g K K K K K K K K H g t s K K K K K K H K K K K K K K K K K K K K K K K K g t r g g g ",
"g D g g g t t g H K K K K K K K K J K K K H K K K K K K K K K K K K K K K K K K K K K K g g g g g g ",
"g g g g g g g g K K t K K K K K K H G K K K K H K K K K K K K G G H F K K K K K K K K H K D K K g g ",
"g g g g J K g K K J s K H K K H D : : e H H K K H K t s t D r : ; s K K K K K K K K K t t D t t g g ",
"g g g g s s D s t r K K K H r 0 p j 0 = 0 0 9 : 9 : 9 9 , 0 9 9 j p e a G K K K K K K g K K K g F K ",
"g K K K g K H K D K K K K D = $ h D.` y > > > < > > > > > < 5 _ D.( ; $ D H K K K K K K H K K g K K ",
"g t K K g F K K K K K H K r # k q.Y.&.U E E W E W W W >.E E I { Y.e.B O G K K H K K g H K K t g t t ",
"g g t t g t H H K g K K K s % k O.J.o.I >.>.R Y B A T R E >.I { F.@.C O g K K H K K K t t t g g D g ",
"g g g g g g t t t g K K K G % H ;.S.` P *.*.P F X.X._ L +.=.| L A.:.[ % g J K J K K K K K g g g g g ",
"g g g g g g g K K K K K K G $  .H.H.` } F.F.} ' L.I.$._ D.H.$.J H.L...% g H K K K K K K t g g g g g ",
"g g g g g g g t H J K K J H $ & / A.{ t i q 9 ] S.I.%.y i u r L -. .& $ g H K K K K K g g g g g g K ",
"g K K D D g g g s s H K J G : o = / a $   . @ q / ) f @     o e j q o $ D K K K K K K g g g g g K K ",
"g K K K g g g g g K K K K G : * * X   6 ! Q Q c v l 1 z l V d X X $ * $ G K K K K K K K g g D D t t ",
"g s t t g g g g K K K K K G % $ * + # ~ N.N.M.M.k.7.2.3.,.r.@.: $ * * $ g K K K K K K K K K K K J K ",
"g D K K K K K K K K K K K G = $ * + b 6.n.T.b.h.c.c.z.j.,.0.w.6.; $ * $ D K K K K K K K J t K K K K ",
"g g K K K t t K K K K K K J = @ 4 ^ p.i.t.m.v.x.Z.Z.z.8.3.9.l.V.6.x @ $ D K K K K K K K F D K K K t ",
"g g K K t D D K K K K K K G : + v d.f.y.#.#.i.f.a.a.5.<.1.s.a.d.f.! # $ D K K J K K K t g g t t t D ",
"g g t t g D g g t K K K J G = $ - 4 4 y , , 3 4 4 4 3 2 2 3 4 y 4 8 * $ D K t t K K K K g g g g g g ",
"g g g g K K g g K K K K K J : < N n n n n k n n n n n n N n n n n n 2 $ g K K K K _ K K K g K K g g ",
"g g g g H J g K K K K K K G = 2 A B Z B Z B Z Z B Z Z Z Z Z Z Z B A 4 $ g K K K H K J s s g s s g g ",
"g g g g s s g t s K J K J G : 2 B B B B B B B B B B B B B B B B Z Z y $ D K H K K K K G H K J g g g ",
"g g g g g F K K g K K K K r $ - M B B B B B B Z B B B B B B B B B M 2 $ r K K K K K H K K H K g g D ",
"g g g g g K K K K K J H K G % - N N M M M M M M M M M M M M M M M N 8 $ g K K K K K g K K K t g g g ",
"g g g g g g K K H g K H K G % = 2 8 w w w w w w w w w 8 w w w 8 w w - + r K H J g g g t s t D g g g ",
"g g g g g g t t s g s s K J : + O # # O $ $ O + # # $ $ $ $ $ o $ # $ % g K K s g K K H K g g g g g ",
"g g g g g g g K K K J g s J G s r r r r r r t r e e r r t r r r e e e t J K K g g g K H t g g g g g ",
"g g g g g g g t K K t g g K K K g g g g g g g g g g D g g g g g g g g g t t t g g g t t g g g g g g ",
"g g g g g g g g r t g g g s r s g g g g g g g g g g g g g g g g g g g g D g g g g g g g g g g g g g ",
"g g g g g g g g g g g g g g g g D g g g g g g g g g g g g g g g g g g g D g g g g g g g g g g g g g ",
"g g g g g g g g g g g D g g g g g g g g g g g g g g g g g g g g g g g g g g g D g g g g g g g D g g ",
"g g g g g g g g g g g g g g g g g g g g g g D g g g g g g g g g g g g g g g g g g g g D g g g g g g ",
"g g g g g g g g g g g g g g g g g g g g g g g g g g g g g g g g g D g g g g g g g g g g g g g g g g ",
"g g g g g g g g g g g g g g g g g g g g g g g g g g g g D g g g g g g g g g g g g g g g g g g g g g ",
"g g g g g g g g g g g g g g g g g g g g g g g g g g g g g g g g g g g g g g g g g g g g g g D g g g ",
"g g g g g g g g g g g g g g g g g g D g g g g g g g g g g g g g g g g g g g g g g g g g g g g g g g ",
"g g g g g g g g g g g g g g g g g g g g g g g g g g g g g g g g g g g g g g g g g g g g g g g g g g "
};
