/* XPM */
static char *e483b0fc6bbe492eac99357f0894a5d7KjP92hDccIFjgBrZ[] = {
/* columns rows colors chars-per-pixel */
"50 50 135 2 ",
"   c #1B0C14",
".  c #1F0F19",
"X  c #1F1016",
"o  c #1B121A",
"O  c #260C13",
"+  c #2A0D15",
"@  c #250E18",
"#  c #2B0D1B",
"$  c #22121A",
"%  c #2A131E",
"&  c #36151C",
"*  c #3B131D",
"=  c #36181A",
"-  c #271721",
";  c #2A1721",
":  c #251927",
">  c #2C1922",
",  c #221F2A",
"<  c #2D1829",
"1  c #361224",
"2  c #3C1423",
"3  c #321A26",
"4  c #3F1B27",
"5  c #371428",
"6  c #361E2B",
"7  c #391F2C",
"8  c #20202A",
"9  c #2C212E",
"0  c #36202B",
"q  c #3B212E",
"w  c #292735",
"e  c #2A2833",
"r  c #3F2332",
"t  c #27313B",
"y  c #28303D",
"u  c #3F333D",
"i  c #4C1B1C",
"p  c #5A1C1F",
"a  c #421922",
"s  c #4B1C22",
"d  c #46162C",
"f  c #4D1A2B",
"g  c #571F20",
"h  c #541F2B",
"j  c #591B28",
"k  c #522124",
"l  c #5C2425",
"z  c #55202B",
"x  c #5D222B",
"c  c #402433",
"v  c #442A36",
"b  c #492E37",
"n  c #472B3B",
"m  c #492D39",
"M  c #542C3C",
"N  c #443137",
"B  c #5B323F",
"V  c #622127",
"C  c #682127",
"Z  c #62232C",
"A  c #69242A",
"S  c #61292B",
"D  c #6B292C",
"F  c #7B2D2C",
"G  c #7A302F",
"H  c #692A32",
"J  c #7A2F32",
"K  c #7B3031",
"L  c #2A3442",
"P  c #2D3C4C",
"I  c #462C41",
"U  c #4B2D41",
"Y  c #443548",
"T  c #49374D",
"R  c #47394F",
"E  c #4B394B",
"W  c #503141",
"Q  c #513A44",
"!  c #523A4A",
"~  c #5C3B4B",
"^  c #473751",
"/  c #473E53",
"(  c #4F3E51",
")  c #603A47",
"_  c #314252",
"`  c #3C5267",
"'  c #464451",
"]  c #47445F",
"[  c #48435A",
"{  c #524153",
"}  c #734045",
"|  c #78494F",
" . c #6D4C53",
".. c #604F5F",
"X. c #6E545F",
"o. c #4B4E62",
"O. c #4E5067",
"+. c #625060",
"@. c #6F5764",
"#. c #715762",
"$. c #745A64",
"%. c #7D5C63",
"&. c #4A697E",
"*. c #6A6470",
"=. c #69687A",
"-. c #813736",
";. c #823C3C",
":. c #893F3E",
">. c #893F40",
",. c #8C4040",
"<. c #825154",
"1. c #85545A",
"2. c #855B5F",
"3. c #885B60",
"4. c #81626A",
"5. c #8A6E77",
"6. c #466C81",
"7. c #4E6E84",
"8. c #4D7086",
"9. c #4C768E",
"0. c #52768B",
"q. c #5B7A8E",
"w. c #527C94",
"e. c #5B7D91",
"r. c #55839B",
"t. c #5C819B",
"y. c #63869B",
"u. c #698A9D",
"i. c #5587A0",
"p. c #568CA4",
"a. c #598FA9",
"s. c #7FA2B6",
"d. c #82A2B7",
"f. c #83A6BA",
"g. c #85A6B9",
/* pixels */
"r r r r r r c r r r r r r r r r r r r r r r r r r r r c r c r r r r r r r r r r r r r r r r r r r r ",
"r r r r r r r r r r r r r r r r r r r r r r c r r r r r r r r r r r r r r r r r r r c r r r c r r r ",
"r r r r r r r r r r r r r r r r r r r c c r r r r r r r r r r r r r r r r r r r r r r r r r r r r r ",
"r r r r r r r r r r r r r c r r r r r r r r r r c r r r r r c r r r r r r r r r r r r r r r r r r r ",
"r r r r r r r r r r r r r r r r r r r r r r r r r r r r r r r r r r r r r d c c r r r r r r r r c c ",
"r r r r r r r r r r r r r r r c r r r r r r r r c r r r r r r r r r r r n n r c r r r r r c r r c q ",
"r r r r r r r r r r r r r q m m r r r r r r r r r r r r r r m m m m c c m m m c r r r r r r r r r r ",
"r r r r c r r r r r r c c m m b r r m m m m r r r r r r r c m m m b r c 7 0 7 7 r r r r r r r r r r ",
"r r c r r r r r c c r r r 7 7 7 c r m b m m r r r r m m m r 7 m m 6 c m m m r r b n c c r r r r r r ",
"c r r r r r c r r r m m r c m m m r 7 m m 7 r m m n m m m r r 7 7 r c m m m m c b n c c r r r c r r ",
"r r c r r r r r r r m m c m m m m 7 r 7 7 r r m m m 7 7 7 r m m m c r 7 m m m c 4 7 c m n n r r r r ",
"r r r c r r m m m 7 7 7 c m m m 6 r r m m m r 7 7 7 r r r m m m m m r r 6 6 7 c r r m m m 7 c r r r ",
"r r r r r r 7 m m m 7 r r 7 7 7 r r m m m m m 0 r r m m m m m m m m r m m m m m m m 6 7 7 r r c r r ",
"r r r r r r r 7 7 7 m m m b m b b r m m m m m q m m n m m m m m 7 7 r m m m m m m m m m r m m r c q ",
"r r r r r m m r m m m m m m m m b r 7 7 m m m m m m b m m m m m m m m m m m m m m m m m q q 0 r c q ",
"r r r r r 7 7 r b m m m m m m m b m m m m m m m b m m m m m m m v m m m m m m m m m m m r r r c c c ",
"r r r r r c c r m m 7 m m m b m m m m m m m m m m n m n m m n m m m m m b m m m m m v m m r m m r r ",
"r r r r m m r m m m 7 m n m m m m m m m m m m m m m 7 7 q r m m m m m m m m m m m m m q 7 r 7 7 r r ",
"r r r r 7 7 c 0 7 7 m m b m m m m m m m m m r 7 7 q r r r m m m m m m m m b m m m m m r m m m c m m ",
"r m m m r m m m r m m m m b m m m c v m m m m r r r m m m b v v v b b r m m m m m m m m b m m r m m ",
"r 7 m m r b m m m m m m m 7 7 7 7 $   > m m m m m m m m m m 0 X $ 0 m b m m m m m m r b m m 7 r 7 7 ",
"r r 7 7 r 7 m m b r m m m r ; % 9 P 6 % - ; ; : : - ; ; % - % < P e % 3 v m m m m m m q 7 7 r r r r ",
"r r r r r r 7 7 7 r m m m v X O u q.( 2 = = = = & = = = & & * U q.' O X r m m m m v m m m r r r r r ",
"r r c r r r r m m m m m m v X s 2.g.+.Z ;.;.;.;.K :.;.;.;.:.D ~ d.5.l o r m m m m m m m 7 r r r r r ",
"r r r r r r r 6 v b m m m v @ k <.q.R Z :.:.:.:.,.,.,.:.:.,.H m 0.3.l X r m m m m m n c r r r r r m ",
"r m m r r r c q 6 7 m m m v o k 1.u.{ x -.-.-.-.;.K ;.K K ;.D W y.4.S X r m m m m m m c r r r r m m ",
"r m m m r r r q r m b m n v o i 2.g...Z G F F K K G G G G K C ~ d.5.l X r m m m m m m m r r c r 7 7 ",
"r 7 6 7 r c c c b m m m m v $ i | y./ j G K J J K K K K G K Z I t.$.g $ v N m m b n m m n n m m n m ",
"c c m m m m m m b m m m m v . i } 8.E V F F A x j f j D F F C m 7. .p   c m m m b m m b m 7 m m m m ",
"c c m m m 7 6 m m m m m m n   N *.9.E B @.@.B m / o.U M X.$.) M 8.=.Q X c m m m m m m m n r m m m 7 ",
"7 c m m 6 r c m b m m n m v   _ r.i.E / w.w.^ ^ i.a.o.I 0.w.o.I w.r.`   c m m m m m m 6 r r 7 7 7 r ",
"c c 6 6 c c r c 0 b m m m n $ o L 6.! a 8 8 5 Y 9.p.O.5 , , 6 W &._ o   c m 7 7 m m m m r r c r r r ",
"c r r r n m c c m m m m m v @ O 3 t > = * * # : L P w # & * & ; y 6 +   c m m m m m m m m r m m c r ",
"r c r r m m c b m m m m m n . 1 f + @ * z z 2 O O O O & z x a @ + s a   c m m m m m m 7 7 r 7 7 r r ",
"r r 7 c 6 4 c 7 7 m m m m v o & h h h h h z z h h h h h h h z h h h 2   v m m m m m m r m m m r r r ",
"c r c c c b n m r n m m m 6   # f h h h j z z z z h z h h h z z h f 1   7 b m m m m b m m m m r r r ",
"r r r r r n m m m m m m m v @ # d f f f f f f f f f f f f f f f h d 1   c m m m m m r m m m 7 v r r ",
"r r r r r c m m m r m m m v o @ 1 1 1 1 1 1 1 1 1 1 1 2 1 1 1 1 1 1 @   3 m m m r r r 7 0 7 r r r r ",
"r r r r r r 7 6 7 r 7 7 m v $                                           c m m 7 r m m n m r r r r r ",
"r r r r r r c n v m m r q m q 6 3 < 3 3 < 1 3 3 % > % 3 3 3 < 3 % % > 6 v m b r c r m m 7 r r r r r ",
"r r r r r r r 7 m m 6 r r m m m r r r r r r r r r r c c r r r r r r r r 4 6 6 r c c 6 7 c r r r r r ",
"r r r r r r c r 7 q 7 r r 7 6 6 c r r r r r r r r r r 7 7 r r r r r r r r c c c r c r r r r r r r r ",
"r r r r r r c c c r r r r r c c r r r r r r r r r r r r c c r r r r r r r r r r r r r r r r r r r r ",
"r r r r r r c 7 r r r r r c c r r r r r r r r r r r r r r c r r r r r r r r r r r r r r r r r c r r ",
"r r r r r r r r r r r r r r r r r r r r r r r r r c r r r r r r r r r r r r r r r r r c r r r r r r ",
"r r r r r r r r c r r r r r r r r r r r r r r r r r r r c r r r r r r r r r r c r r r r r r r r r r ",
"r r r r r r r r r r r r r r r r r r r r r r r r r r r r r r r r r r r r r r r r r r r r r r r r r c ",
"r r r r r r r r r r r r r r c r r r r r r c r r r r r r r r r r r r r r r r r r r r r r r r r c r r ",
"r r r r r r r r r c r r r r r r r r r r r r r r r r r r r r r r r r r r r r r r r r r r r r r r r r ",
"r r r r r r r r r r r r r r r r r r r r r r r c r r r r r r r r r r r r r r r r r r r r r r r r r r "
};
